<svg width="31" height="29" viewBox="0 0 31 29" fill="none" xmlns="http://www.w3.org/2000/svg">
<path d="M15.444 2.2156C12.9302 2.2156 10.473 2.92995 8.38287 4.2683C6.29277 5.60666 4.66374 7.50892 3.70178 9.73452C2.73981 11.9601 2.48812 14.4091 2.97853 16.7718C3.46893 19.1345 4.67941 21.3048 6.45689 23.0082C8.23437 24.7116 10.499 25.8716 12.9644 26.3416C15.4299 26.8115 17.9854 26.5703 20.3078 25.6485C22.6301 24.7266 24.6151 23.1654 26.0117 21.1625C27.4082 19.1595 28.1536 16.8046 28.1536 14.3956C28.1536 11.1653 26.8146 8.06724 24.4311 5.78304C22.0475 3.49885 18.8148 2.2156 15.444 2.2156ZM15.444 27.9908C12.6317 27.992 9.88219 27.1937 7.54334 25.6971C5.2045 24.2005 3.38137 22.0728 2.3046 19.583C1.22782 17.0933 0.945773 14.3535 1.49413 11.7101C2.04249 9.0667 3.39662 6.63857 5.38522 4.73284C7.37383 2.82711 9.90755 1.52942 12.6659 1.00391C15.4242 0.4784 18.2832 0.748693 20.8812 1.7806C23.4792 2.8125 25.6995 4.55965 27.2612 6.80102C28.8229 9.0424 29.6558 11.6773 29.6546 14.3724C29.6498 17.9828 28.1511 21.444 25.4871 23.997C22.8231 26.5499 19.2114 27.9862 15.444 27.9908Z" fill="#B0B0B0"/>
<path d="M13.241 14.4362V22.33C13.241 22.3854 13.2639 22.4385 13.3048 22.4777C13.3456 22.5168 13.401 22.5388 13.4588 22.5388H16.5152C16.573 22.5388 16.6284 22.5168 16.6693 22.4777C16.7101 22.4385 16.7331 22.3854 16.7331 22.33V14.3086H18.9482C18.9752 14.3094 19.0021 14.305 19.0274 14.2958C19.0527 14.2866 19.0758 14.2728 19.0955 14.255C19.1152 14.2372 19.131 14.2159 19.1421 14.1922C19.1531 14.1686 19.1592 14.1431 19.16 14.1172L19.3779 11.7044C19.3795 11.6757 19.3751 11.6471 19.365 11.6201C19.3549 11.5931 19.3392 11.5683 19.3188 11.5472C19.2985 11.5261 19.274 11.5091 19.2467 11.4973C19.2194 11.4854 19.19 11.4789 19.16 11.4782H16.7391V9.73821C16.7453 9.55295 16.8252 9.37698 16.9625 9.24645C17.0999 9.11593 17.2841 9.04076 17.4775 9.03641H19.1721C19.2289 9.0349 19.2827 9.01223 19.3223 8.97324C19.3619 8.93424 19.384 8.882 19.384 8.82761V6.41481C19.384 6.36042 19.3619 6.30817 19.3223 6.26918C19.2827 6.23018 19.2289 6.20752 19.1721 6.20601H16.2671C15.4606 6.21668 14.691 6.5312 14.1247 7.08151C13.5583 7.63183 13.2409 8.3737 13.241 9.14661V11.4666H11.6795C11.6227 11.4681 11.5689 11.4908 11.5293 11.5298C11.4898 11.5688 11.4676 11.621 11.4677 11.6754V14.0882C11.4676 14.1426 11.4898 14.1948 11.5293 14.2338C11.5689 14.2728 11.6227 14.2955 11.6795 14.297H13.241V14.4362Z" fill="#B0B0B0"/>
</svg>
