<?xml version="1.0" encoding="UTF-8" standalone="no"?>
<svg
   xmlns:dc="http://purl.org/dc/elements/1.1/"
   xmlns:cc="http://creativecommons.org/ns#"
   xmlns:rdf="http://www.w3.org/1999/02/22-rdf-syntax-ns#"
   xmlns:svg="http://www.w3.org/2000/svg"
   xmlns="http://www.w3.org/2000/svg"
   xmlns:sodipodi="http://sodipodi.sourceforge.net/DTD/sodipodi-0.dtd"
   xmlns:inkscape="http://www.inkscape.org/namespaces/inkscape"
   viewBox="0 0 40 40"
   fill="#1F1C47"
   version="1.1"
   id="svg10"
   sodipodi:docname="github.svg"
   inkscape:version="1.0.1 (0767f8302a, 2020-10-17)">
  <metadata
     id="metadata16">
    <rdf:RDF>
      <cc:Work
         rdf:about="">
        <dc:format>image/svg+xml</dc:format>
        <dc:type
           rdf:resource="http://purl.org/dc/dcmitype/StillImage" />
      </cc:Work>
    </rdf:RDF>
  </metadata>
  <defs
     id="defs14" />
  <sodipodi:namedview
     pagecolor="#ffffff"
     bordercolor="#666666"
     borderopacity="1"
     objecttolerance="10"
     gridtolerance="10"
     guidetolerance="10"
     inkscape:pageopacity="0"
     inkscape:pageshadow="2"
     inkscape:window-width="1280"
     inkscape:window-height="1374"
     id="namedview12"
     showgrid="false"
     inkscape:zoom="22.075"
     inkscape:cx="20"
     inkscape:cy="20"
     inkscape:window-x="1280"
     inkscape:window-y="34"
     inkscape:window-maximized="0"
     inkscape:current-layer="svg10" />
  <path
     d="M24.9499 38.01C24.9499 37.35 24.9699 35.2 24.9699 32.52C24.9699 30.65 24.3299 29.43 23.6099 28.82C28.0599 28.32 32.7399 26.63 32.7399 18.95C32.7399 16.77 31.9699 14.98 30.6799 13.58C30.8899 13.07 31.5699 11.04 30.4799 8.28999C30.4799 8.28999 28.7999 7.74999 24.9899 10.34C23.3899 9.89999 21.6799 9.66999 19.9799 9.66999C18.2799 9.67999 16.5699 9.89999 14.9699 10.34C11.1499 7.74999 9.46993 8.28999 9.46993 8.28999C8.37993 11.04 9.06993 13.08 9.26993 13.58C7.98993 14.98 7.20993 16.76 7.20993 18.95C7.20993 26.61 11.8799 28.33 16.3199 28.83C15.7499 29.33 15.2299 30.21 15.0499 31.5C13.9099 32.01 11.0099 32.89 9.22994 29.84C9.22994 29.84 8.16993 27.92 6.16993 27.78C6.16993 27.78 4.21994 27.75 6.02994 29C6.02994 29 7.33994 29.62 8.24994 31.93C8.24994 31.93 9.41994 35.82 14.9899 34.61C14.9999 36.28 15.0199 37.54 15.0199 38.01C15.0199 38.53 14.6599 39.14 13.6899 38.98C15.6699 39.64 17.7899 39.99 19.9899 39.99C22.1999 39.99 24.3199 39.63 26.3099 38.97C25.2999 39.17 24.9499 38.55 24.9499 38.01Z"
     fill="#1F1C47"
     id="path4" />
  <path
     d="M27.37 38.59C27.32 38.61 27.28 38.63 27.23 38.64C27.28 38.62 27.33 38.61 27.37 38.59Z"
     fill="#1F1C47"
     id="path6" />
  <path
     d="M26.3999 38.95C26.4199 38.94 26.4299 38.94 26.4499 38.93C26.4299 38.94 26.4099 38.94 26.3999 38.95Z"
     fill="#1F1C47"
     id="path8" />
</svg>
