<svg width="30" height="29" viewBox="0 0 30 29" fill="none" xmlns="http://www.w3.org/2000/svg">
<g clip-path="url(#clip0)">
<path d="M22.2576 18.2294C22.256 19.1636 21.8676 20.0591 21.1777 20.7192C20.4878 21.3793 19.5527 21.75 18.5778 21.75H11.5149C10.54 21.75 9.60494 21.3793 8.91502 20.7192C8.22511 20.0591 7.83671 19.1636 7.83511 18.2294V11.455C7.83671 10.5207 8.22511 9.62527 8.91502 8.96519C9.60494 8.30512 10.54 7.93438 11.5149 7.93438H18.5778C19.5527 7.93438 20.4878 8.30512 21.1777 8.96519C21.8676 9.62527 22.256 10.5207 22.2576 11.455V18.2294ZM23.9341 11.455C23.9341 10.7812 23.7955 10.114 23.5262 9.49155C23.257 8.86911 22.8624 8.30363 22.3649 7.82745C21.8675 7.35127 21.2769 6.97373 20.6271 6.7164C19.9773 6.45908 19.281 6.32702 18.5778 6.32778H11.5149C10.8118 6.32702 10.1154 6.45908 9.46559 6.7164C8.81578 6.97373 8.22526 7.35127 7.72781 7.82745C7.23036 8.30363 6.83572 8.86911 6.56647 9.49155C6.29722 10.114 6.15864 10.7812 6.15864 11.455V18.2294C6.15864 18.9032 6.29722 19.5704 6.56647 20.1928C6.83572 20.8153 7.23036 21.3807 7.72781 21.8569C8.22526 22.3331 8.81578 22.7106 9.46559 22.968C10.1154 23.2253 10.8118 23.3573 11.5149 23.3566H18.5778C19.281 23.3573 19.9773 23.2253 20.6271 22.968C21.2769 22.7106 21.8675 22.3331 22.3649 21.8569C22.8624 21.3807 23.257 20.8153 23.5262 20.1928C23.7955 19.5704 23.9341 18.9032 23.9341 18.2294V11.455ZM15.0796 17.6436C14.5225 17.6447 13.9776 17.4874 13.5138 17.1915C13.0501 16.8956 12.6884 16.4744 12.4747 15.9814C12.2609 15.4883 12.2047 14.9456 12.3131 14.4219C12.4215 13.8981 12.6896 13.4171 13.0836 13.0395C13.4775 12.662 13.9796 12.405 14.526 12.3011C15.0725 12.1973 15.6389 12.2511 16.1534 12.456C16.6679 12.6608 17.1073 13.0074 17.4161 13.4518C17.7249 13.8962 17.8891 14.4185 17.8879 14.9524C17.8863 15.6657 17.5899 16.3493 17.0636 16.8537C16.5373 17.358 15.8239 17.642 15.0796 17.6436ZM15.0796 10.7474C14.2118 10.7474 13.3635 10.994 12.6419 11.4561C11.9203 11.9181 11.3579 12.5748 11.0258 13.3432C10.6937 14.1116 10.6068 14.957 10.7761 15.7727C10.9454 16.5884 11.3633 17.3377 11.9769 17.9258C12.5906 18.5138 13.3725 18.9143 14.2236 19.0766C15.0748 19.2388 15.957 19.1556 16.7588 18.8373C17.5606 18.519 18.2459 17.9801 18.728 17.2886C19.2102 16.597 19.4675 15.7841 19.4675 14.9524C19.4659 13.8376 19.0031 12.769 18.1806 11.9807C17.358 11.1924 16.2429 10.7489 15.0796 10.7474ZM19.7217 9.45978C19.5136 9.45984 19.3102 9.51932 19.1376 9.63063C18.9649 9.74195 18.8308 9.90005 18.7523 10.0848C18.6738 10.2695 18.6545 10.4724 18.6969 10.6676C18.7393 10.8629 18.8415 11.0416 18.9903 11.1809C19.1392 11.3203 19.328 11.414 19.5327 11.45C19.7374 11.4861 19.9486 11.4629 20.1395 11.3834C20.3303 11.3039 20.4921 11.1717 20.6042 11.0036C20.7163 10.8356 20.7736 10.6394 20.7688 10.44C20.7688 10.1739 20.6584 9.91865 20.4621 9.73047C20.2657 9.5423 19.9994 9.43658 19.7217 9.43658V9.45978ZM14.9647 2.70278C12.4363 2.70164 9.96436 3.41909 7.86152 4.76439C5.75868 6.1097 4.11939 8.02242 3.15099 10.2606C2.1826 12.4989 1.9286 14.962 2.42113 17.3386C2.91366 19.7152 4.13058 21.8984 5.91798 23.6121C7.70538 25.3258 9.98297 26.4931 12.4627 26.9662C14.9424 27.4393 17.5128 27.1971 19.8488 26.2701C22.1848 25.3431 24.1815 23.7731 25.5863 21.7585C26.9911 19.7439 27.7409 17.3754 27.7409 14.9524C27.7377 11.7055 26.3908 8.59246 23.9957 6.29605C21.6005 3.99963 18.3527 2.70739 14.9647 2.70278ZM14.9647 28.4838C12.1728 28.4803 9.44463 27.6838 7.12502 26.1949C4.8054 24.7059 2.99845 22.5914 1.93253 20.1186C0.866612 17.6457 0.589581 14.9256 1.13645 12.3019C1.68332 9.6782 3.02954 7.26876 5.00496 5.37811C6.98038 3.48745 9.49634 2.20043 12.2348 1.67973C14.9733 1.15902 17.8114 1.42801 20.3904 2.45267C22.9695 3.47734 25.1736 5.2117 26.7243 7.43655C28.275 9.6614 29.1027 12.2769 29.1027 14.9524C29.0979 18.5427 27.6062 21.9845 24.9553 24.5216C22.3045 27.0587 18.7112 28.4838 14.9647 28.4838Z" fill="#B0B0B0"/>
</g>
<defs>
<clipPath id="clip0">
<rect width="29.656" height="28.42" fill="white" transform="translate(0.0518799 0.58)"/>
</clipPath>
</defs>
</svg>
