<?xml version="1.0" encoding="UTF-8" standalone="no"?>
<svg
   xmlns:dc="http://purl.org/dc/elements/1.1/"
   xmlns:cc="http://creativecommons.org/ns#"
   xmlns:rdf="http://www.w3.org/1999/02/22-rdf-syntax-ns#"
   xmlns:svg="http://www.w3.org/2000/svg"
   xmlns="http://www.w3.org/2000/svg"
   xmlns:sodipodi="http://sodipodi.sourceforge.net/DTD/sodipodi-0.dtd"
   xmlns:inkscape="http://www.inkscape.org/namespaces/inkscape"
   viewBox="0 0 512 512"
   version="1.1"
   id="svg10"
   sodipodi:docname="reddit.svg"
   inkscape:version="1.0.1 (0767f8302a, 2020-10-17)">
  <metadata
     id="metadata16">
    <rdf:RDF>
      <cc:Work
         rdf:about="">
        <dc:format>image/svg+xml</dc:format>
        <dc:type
           rdf:resource="http://purl.org/dc/dcmitype/StillImage" />
      </cc:Work>
    </rdf:RDF>
  </metadata>
  <defs
     id="defs14" />
  <sodipodi:namedview
     pagecolor="#ffffff"
     bordercolor="#666666"
     borderopacity="1"
     objecttolerance="10"
     gridtolerance="10"
     guidetolerance="10"
     inkscape:pageopacity="0"
     inkscape:pageshadow="2"
     inkscape:window-width="1920"
     inkscape:window-height="1014"
     id="namedview12"
     showgrid="false"
     inkscape:zoom="0.63500977"
     inkscape:cx="166.53679"
     inkscape:cy="338.58008"
     inkscape:window-x="1080"
     inkscape:window-y="34"
     inkscape:window-maximized="0"
     inkscape:current-layer="svg10" />
  <path
     id="path2"
     style="stroke-width:0.989794"
     d="m 365.99626,96.552289 c -10.38895,0 -19.25365,6.032561 -23.56078,14.747371 L 281.01457,98.227698 c -1.7244,-0.355704 -3.50009,-0.05059 -4.96931,0.912134 -1.46923,0.958868 -2.48137,2.431478 -2.8371,4.152028 0,0 -18.447,87.87562 -18.447,88.38212 -39.47572,1.013 -74.95416,12.82375 -100.59597,31.3205 -6.63858,-6.38725 -15.6085,-10.28741 -25.54122,-10.28741 -20.4222,0 -36.942167,16.57021 -36.942167,36.94215 0,15.00154 8.968967,27.92297 21.840147,33.69934 -0.55676,3.64986 -0.86105,7.40035 -0.86105,11.20101 0,56.85894 66.1846,102.92666 147.82699,102.92666 81.64242,0 147.82701,-46.06772 147.82701,-102.92666 0,-3.75038 -0.30575,-7.45044 -0.8625,-11.10031 12.8209,-5.77637 21.8912,-18.69796 21.8912,-33.80004 0,-20.42219 -16.51755,-36.94215 -36.94361,-36.94215 -9.98298,0 -19.00335,3.95446 -25.64191,10.38812 -25.23586,-18.24543 -60.0517,-30.00236 -98.81987,-31.3672 l 16.82267,-79.21117 54.98781,11.70742 c 0.65728,13.98469 12.10823,25.1355 26.24757,25.1355 14.59558,0 26.40373,-11.80815 26.40373,-26.40374 0,-14.59557 -11.80815,-26.403711 -26.40373,-26.403711 z M 202.36088,249.64922 c 14.54531,10e-6 26.40226,11.85841 26.40226,26.40373 0,14.54531 -11.85695,26.40373 -26.40226,26.40373 -14.54145,0 -26.40372,-11.86228 -26.40372,-26.40373 0,-14.54532 11.86227,-26.40373 26.40372,-26.40373 z m 116.15333,0 c 14.54533,0 26.40373,11.85841 26.40373,26.40373 0,14.54145 -11.86227,26.40373 -26.40373,26.40373 -14.5453,0 -26.40372,-11.86228 -26.40372,-26.40373 0,-14.54532 11.85842,-26.40373 26.40372,-26.40373 z m -115.87458,84.44173 c 1.74809,0 3.49584,0.67187 4.83942,2.01545 11.35167,11.35167 35.62563,15.40265 53.00884,15.40265 17.33299,0 41.65572,-4.05098 53.0074,-15.40265 2.68713,-2.68715 6.99462,-2.68715 9.68176,0 2.63299,2.68326 2.63299,6.99023 0,9.67738 -18.0444,17.99023 -52.55537,19.40874 -62.68916,19.40874 -10.13375,0 -44.69596,-1.41851 -62.68621,-19.40874 -2.68713,-2.68328 -2.68713,-6.99025 0,-9.67738 1.34163,-1.34358 3.08986,-2.01545 4.83795,-2.01545 z" />
</svg>
