<?xml version="1.0" encoding="UTF-8" standalone="no"?>
<svg
   xmlns:dc="http://purl.org/dc/elements/1.1/"
   xmlns:cc="http://creativecommons.org/ns#"
   xmlns:rdf="http://www.w3.org/1999/02/22-rdf-syntax-ns#"
   xmlns:svg="http://www.w3.org/2000/svg"
   xmlns="http://www.w3.org/2000/svg"
   xmlns:sodipodi="http://sodipodi.sourceforge.net/DTD/sodipodi-0.dtd"
   xmlns:inkscape="http://www.inkscape.org/namespaces/inkscape"
   viewBox="0 0 750 750"
   xml:space="preserve"
   id="svg2"
   fill="#1F1C47"
   version="1.1"
   sodipodi:docname="session.svg"
   inkscape:version="1.0.1 (0767f8302a, 2020-10-17)"><sodipodi:namedview
     pagecolor="#ffffff"
     bordercolor="#666666"
     borderopacity="1"
     objecttolerance="10"
     gridtolerance="10"
     guidetolerance="10"
     id="namedview12"
     showgrid="false"
     id="metadata8"><rdf:RDF><cc:Work
         rdf:about=""><dc:format>image/svg+xml</dc:format><dc:type
           rdf:resource="http://purl.org/dc/dcmitype/StillImage" /><dc:title></dc:title></cc:Work></rdf:RDF></metadata><defs
     id="defs6"><marker
       style="overflow:visible"
       id="Arrow1Lstart"
       refX="0.0"
       refY="0.0"
       orient="auto"
       inkscape:stockid="Arrow1Lstart"
       inkscape:isstock="true"><path
         transform="scale(0.8) translate(12.5,0)"
         style="fill-rule:evenodd;stroke:#000000;stroke-width:1.0pt"
         d="M 0.0,0.0 L 5.0,-5.0 L -12.5,0.0 L 5.0,5.0 L 0.0,0.0 z "
         id="path851" /></marker><clipPath
       id="clipPath18"
       clipPathUnits="userSpaceOnUse"><path
         id="path16"
         d="M 0,336.305 H 303.064 V 0 H 0 Z" /></clipPath></defs><g
     id="g12"
     style="fill-rule:evenodd;stroke-width:5.57474871;stroke-miterlimit:4;stroke-dasharray:none"
     transform="matrix(1.3333333,0,0,-1.3333333,166.25866,593.14339)"><path
       id="path22"
       style="fill:#1f1c47;fill-opacity:1;fill-rule:evenodd;stroke:#1f1c47;stroke-width:8.50393722;stroke-miterlimit:4;stroke-dasharray:none;stroke-opacity:1"
       d="M 216.4556,21.0229 H 69.2046 c -25.182,0 -46.881,19.311 -48.123,44.461 -1.328,26.885 20.162,49.182 46.765,49.182 h 84.804 c 5.189,0 9.395,4.206 9.395,9.394 v 69.229 l 83.435,-46.234 c 22.062,-12.225 35.95,-35.251 36.54,-60.386 0.85,-36.095 -29.461,-65.646 -65.565,-65.646 m -158.872,168.227 c -22.062,12.225 -35.95,35.251 -36.541,60.386 -0.849,36.095 29.462,65.646 65.565,65.646 h 147.251 c 25.182,0 46.881,-19.311 48.124,-44.462 1.328,-26.884 -20.162,-49.181 -46.764,-49.181 0,0 -60.987,-0.01 -84.808,-0.014 -5.186,-0.001 -9.374,-4.206 -9.376,-9.392 l -0.016,-69.217 z m 198.085,-23.807 -63.478,35.173 h 43.028 c 37.408,0 67.845,30.434 67.845,67.843 0,37.408 -30.437,67.846 -67.845,67.846 H 84.9946 c -46.864,0 -84.995,-38.131 -84.995,-84.995 0,-33.425 18.162,-64.248 47.396,-80.449 l 63.477,-35.172 h -43.026 c -37.41,0 -67.847,-30.435 -67.847,-67.843 0,-37.408 30.437,-67.846 67.847,-67.846 h 150.222 c 46.866,0 84.995,38.13 84.995,84.995 0,33.425 -18.162,64.248 -47.395,80.448" /></g></svg>
