<?xml version="1.0" encoding="UTF-8" standalone="no"?>
<svg
   xmlns:dc="http://purl.org/dc/elements/1.1/"
   xmlns:cc="http://creativecommons.org/ns#"
   xmlns:rdf="http://www.w3.org/1999/02/22-rdf-syntax-ns#"
   xmlns:svg="http://www.w3.org/2000/svg"
   xmlns="http://www.w3.org/2000/svg"
   xmlns:sodipodi="http://sodipodi.sourceforge.net/DTD/sodipodi-0.dtd"
   xmlns:inkscape="http://www.inkscape.org/namespaces/inkscape"
   version="1.1"
   id="Layer_1"
   x="0px"
   y="0px"
   viewBox="0 0 2750 2750"
   xml:space="preserve"
   sodipodi:docname="session.svg"
   inkscape:version="1.0.1 (0767f8302a, 2020-10-17)"><metadata
   id="metadata15"><rdf:RDF><cc:Work
       rdf:about=""><dc:format>image/svg+xml</dc:format><dc:type
         rdf:resource="http://purl.org/dc/dcmitype/StillImage" /><dc:title></dc:title></cc:Work></rdf:RDF></metadata><defs
   id="defs13" /><sodipodi:namedview
   pagecolor="#ffffff"
   bordercolor="#666666"
   borderopacity="1"
   objecttolerance="10"
   gridtolerance="10"
   guidetolerance="10"
   inkscape:pageopacity="0"
   inkscape:pageshadow="2"
   inkscape:window-width="2560"
   inkscape:window-height="1374"
   id="namedview11"
   showgrid="false"
   inkscape:zoom="0.18137289"
   inkscape:cx="-903.83702"
   inkscape:cy="1689.9868"
   inkscape:window-x="0"
   inkscape:window-y="34"
   inkscape:window-maximized="0"
   inkscape:current-layer="Layer_1" />
<g
   id="g8"
   transform="translate(370.68617,368.41838)">
	<path
   class="st0"
   d="m 544.7,1940.8 c -217.9,0 -395.1,-177.2 -395.1,-395.1 0,-217.8 177.2,-395.1 395.1,-395.1 H 678.2 L 420.9,1008 C 253.6,915.3 149.7,738.9 149.7,547.6 149.7,278.3 368.8,59.2 638.1,59.2 h 817.2 c 217.9,0 395.1,177.2 395.1,395.1 0,217.8 -177.2,395.1 -395.1,395.1 H 1321.8 L 1579.1,992 c 167.3,92.7 271.2,269.1 271.2,460.4 0,269.3 -219.1,488.4 -488.4,488.4 z m 0,-623.8 c -63.1,0 -122,25.3 -165.6,71.2 -43.6,45.8 -65.9,105.9 -62.8,169.1 6,121.8 109.6,217.2 235.8,217.2 h 801.1 c 89.2,0 176.3,-36.8 239,-101 61.1,-62.6 93.7,-144.1 91.7,-229.5 -3,-127.3 -74,-244.7 -185.4,-306.4 L 1083.2,907.5 V 1240 c 0,42.5 -34.6,77.1 -77.1,77.1 H 544.7 Z M 646.8,225.6 c -89.2,0 -176.3,36.8 -239,101 -61.1,62.6 -93.7,144.1 -91.7,229.5 3,127.3 74,244.7 185.4,306.4 l 415.3,230.1 0.1,-332.4 c 0,-42.5 34.6,-77.1 77,-77.1 l 461.4,-0.1 c 63.1,0 122,-25.3 165.6,-71.2 43.6,-45.8 65.9,-105.9 62.8,-169.1 -6,-121.8 -109.6,-217.2 -235.8,-217.2 H 646.8 Z"
   id="path4" />
	<path
   class="st0"
   d="m 1455.3,85.2 c 203.5,0 369.1,165.6 369.1,369.1 0,203.5 -165.6,369.1 -369.1,369.1 h -234.1 l 345.3,191.3 c 159,88.1 257.8,255.8 257.8,437.7 0,255 -207.4,462.4 -462.4,462.4 H 544.7 c -203.5,0 -369.1,-165.6 -369.1,-369.1 0,-203.5 165.6,-369.1 369.1,-369.1 H 778.8 L 433.5,985.3 C 274.5,897.2 175.7,729.5 175.7,547.6 175.7,292.6 383.1,85.2 638.1,85.2 h 817.2 m -512.5,1051.5 0.1,-376.6 c 0,-28.2 22.8,-51.1 51,-51.1 129.6,0 461.4,-0.1 461.4,-0.1 144.7,0 261.6,-121.3 254.4,-267.6 -6.8,-136.8 -124.8,-241.9 -261.8,-241.9 H 646.8 c -196.4,0 -361.3,160.8 -356.7,357.1 3.2,136.7 78.8,262 198.8,328.5 l 453.9,251.7 m -390.7,663.7 h 801.1 c 196.4,0 361.3,-160.8 356.7,-357.1 -3.2,-136.7 -78.8,-262 -198.8,-328.5 L 1057.2,863.3 v 376.6 c 0,28.2 -22.9,51.1 -51.1,51.1 H 544.7 c -144.7,0 -261.6,121.3 -254.4,267.6 6.8,136.8 124.8,241.8 261.8,241.8 M 1455.3,33.2 H 638 c -283.6,0 -514.4,230.8 -514.4,514.4 0,200.7 109.1,385.8 284.6,483.1 l 169.4,93.9 h -32.9 c -232.2,0 -421.1,188.9 -421.1,421.1 0,232.2 188.9,421.1 421.1,421.1 H 1362 c 283.6,0 514.4,-230.8 514.4,-514.4 0,-200.7 -109.1,-385.8 -284.6,-483.1 l -169.4,-93.9 h 32.9 c 232.2,0 421.1,-188.9 421.1,-421.1 0,-232.2 -188.9,-421.1 -421.1,-421.1 z M 890.8,1048.5 514.1,839.7 C 410.8,782.4 344.9,673.5 342.1,555.4 340.3,477 370.2,402.2 426.4,344.7 484.2,285.5 564.6,251.5 646.8,251.5 h 801.1 c 112.4,0 204.5,84.5 209.9,192.4 2.8,56 -17,109.3 -55.7,149.9 -38.7,40.7 -90.9,63.1 -146.8,63.1 L 993.9,657 c -27.6,0 -53.4,10.7 -72.9,30.2 -19.4,19.5 -30.1,45.3 -30.1,72.8 z m -338.7,699.9 c -112.4,0 -204.5,-84.5 -209.9,-192.4 -2.8,-56 17,-109.3 55.7,-149.9 38.7,-40.7 90.9,-63.1 146.8,-63.1 h 461.4 c 56.9,0 103.1,-46.3 103.1,-103.1 V 951.5 l 376.7,208.7 c 103.3,57.3 169.2,166.2 172,284.3 1.8,78.4 -28.1,153.2 -84.3,210.7 -57.8,59.2 -138.2,93.2 -220.4,93.2 z"
   id="path6" />
</g>
</svg>
