<svg width="30" height="29" viewBox="0 0 30 29" fill="none" xmlns="http://www.w3.org/2000/svg">
<g clip-path="url(#clip0)">
<path d="M15.2043 2.2156C12.6905 2.2156 10.2333 2.92995 8.14317 4.2683C6.05308 5.60666 4.42405 7.50892 3.46209 9.73452C2.50013 11.9601 2.24843 14.4091 2.73884 16.7718C3.22924 19.1345 4.43972 21.3048 6.21719 23.0082C7.99467 24.7116 10.2593 25.8716 12.7247 26.3416C15.1902 26.8115 17.7456 26.5703 20.068 25.6485C22.3904 24.7266 24.3754 23.1654 25.7719 21.1625C27.1685 19.1595 27.9139 16.8046 27.9139 14.3956C27.9139 11.1653 26.5749 8.06724 24.1913 5.78304C21.8078 3.49885 18.5751 2.2156 15.2043 2.2156ZM15.2043 27.9908C12.392 27.992 9.64249 27.1937 7.30364 25.6971C4.9648 24.2005 3.14168 22.0728 2.06491 19.583C0.988135 17.0933 0.706088 14.3535 1.25445 11.7101C1.80281 9.0667 3.15693 6.63857 5.14553 4.73284C7.13413 2.82711 9.66785 1.52942 12.4262 1.00391C15.1845 0.4784 18.0435 0.748693 20.6415 1.7806C23.2395 2.8125 25.4598 4.55965 27.0214 6.80102C28.5831 9.0424 29.416 11.6773 29.4148 14.3724C29.41 17.9828 27.9113 21.444 25.2474 23.997C22.5834 26.5499 18.9717 27.9862 15.2043 27.9908Z" fill="#B0B0B0"/>
<path d="M23.3687 9.40178C22.8341 9.62095 22.2729 9.77489 21.6983 9.85998C21.9646 9.81358 22.3641 9.34958 22.5214 9.15818C22.7717 8.87139 22.9609 8.54034 23.0782 8.18378C23.0893 8.17294 23.0955 8.15836 23.0955 8.14318C23.0955 8.128 23.0893 8.11342 23.0782 8.10258C23.0642 8.09547 23.0487 8.09175 23.0328 8.09175C23.017 8.09175 23.0014 8.09547 22.9874 8.10258C22.3595 8.42319 21.6928 8.66863 21.0023 8.83338C20.978 8.84028 20.9522 8.84068 20.9277 8.83455C20.9031 8.82841 20.8808 8.81598 20.8631 8.79858C20.8109 8.73503 20.7521 8.67674 20.6876 8.62458C20.4022 8.382 20.0771 8.18606 19.7253 8.04458C19.2573 7.86282 18.7523 7.78546 18.2486 7.81838C17.7603 7.84994 17.2843 7.97832 16.8505 8.19538C16.4144 8.41457 16.0293 8.71649 15.7187 9.08278C15.3964 9.46095 15.1649 9.90256 15.0409 10.3762C14.9363 10.826 14.926 11.2913 15.0106 11.745C15.0106 11.8204 15.0106 11.832 14.938 11.8204C12.2085 11.4318 9.94493 10.4922 8.11111 8.49118C8.02638 8.40418 7.98401 8.40418 7.91744 8.49118C7.11855 9.65118 7.50589 11.5014 8.52266 12.412C8.65581 12.5338 8.79501 12.6556 8.94026 12.7658C8.48213 12.7336 8.03547 12.6133 7.62693 12.412C7.5422 12.3656 7.50589 12.412 7.49983 12.4758C7.48488 12.601 7.48488 12.7275 7.49983 12.8528C7.57978 13.4422 7.82207 14.0005 8.2018 14.4705C8.58154 14.9404 9.08502 15.3049 9.66047 15.5266C9.79986 15.5857 9.94617 15.6285 10.0962 15.6542C9.67222 15.7391 9.23603 15.7529 8.80711 15.6948C8.71028 15.6948 8.67396 15.7238 8.71028 15.8108C8.93107 16.3665 9.29678 16.8587 9.7725 17.2405C10.2482 17.6223 10.8181 17.8808 11.4277 17.9916C11.5488 17.9916 11.6759 17.9916 11.7969 18.038C11.4943 18.4788 10.4352 18.8152 9.94493 18.9776C9.04194 19.2869 8.07989 19.4056 7.1246 19.3256C6.97329 19.3256 6.94303 19.3256 6.90067 19.3256C6.8583 19.3256 6.90067 19.3836 6.94303 19.4184C7.1367 19.5402 7.33037 19.6504 7.54825 19.7548C8.14934 20.0579 8.78232 20.299 9.43654 20.474C12.8197 21.373 16.6326 20.7118 19.1745 18.2932C21.1657 16.3908 21.8678 13.775 21.8678 11.1476C21.8678 11.049 21.9949 10.991 22.0675 10.933C22.5728 10.559 23.0174 10.1153 23.3869 9.61638C23.4463 9.54386 23.4764 9.45325 23.4716 9.36118C23.4716 9.32058 23.4716 9.33218 23.405 9.36118" fill="#B0B0B0"/>
<path d="M18.207 7.8532C18.1956 7.8588 18.183 7.86173 18.1703 7.86173C18.1575 7.86173 18.1449 7.8588 18.1335 7.8532H18.207Z" fill="#B0B0B0"/>
</g>
<defs>
<clipPath id="clip0">
<rect width="29.6558" height="28.42" fill="white" transform="translate(0.291565)"/>
</clipPath>
</defs>
</svg>
