<svg version="1.0" xmlns="http://www.w3.org/2000/svg" width="1045.333" height="1045.333" viewBox="0 0 784 784">
  <path
    d="M368.8.5c-.1.1-4.1.6-8.8.9-9.4.7-14.7 1.3-19.4 2-1.7.3-5.3.8-8.1 1.2-2.7.3-5.9.8-7 1-1.1.3-4.2.9-7 1.4-2.7.6-6 1.2-7.2 1.5-1.3.3-3.2.7-4.4 1-1.1.2-2.8.6-3.7.9-.9.3-2.8.7-4.2 1-1.4.2-7.9 2.1-14.5 4.1-14.4 4.3-13.5 4-16 4.9-15.7 5.8-24.9 9.3-28.9 11.3-2.8 1.2-5.6 2.3-6.3 2.3-.7 0-1.3.4-1.3 1 0 .5-.6 1-1.4 1-1.8 0-26.1 12.5-29.5 15.1-1.3 1.1-2.8 1.9-3.3 1.9-1 0-8.6 4.8-10.6 6.8-.8.7-1.7 1-2.2.7-.5-.3-1-.2-1.2.3-.3.6-16.8 12.7-21.6 15.7-.9.5-2.2 1.6-3 2.3-.8.7-3 2.5-5 4-2.1 1.5-4.2 3.1-4.8 3.7-.7.5-3.3 2.8-5.9 5-6.6 5.5-14.4 12.7-22.8 21.1-10 9.9-20.9 21.9-25.7 28.3-1.4 1.8-3.5 4.3-4.8 5.4-1.2 1.1-2.2 2.7-2.2 3.4 0 .7-.4 1.3-.8 1.3s-3.5 3.9-6.8 8.6c-3.2 4.7-7.3 10.4-8.9 12.7-2.8 3.9-7.2 10.9-10.6 16.7-.8 1.4-1.6 2.7-1.9 3-.3.3-1.2 1.9-2.1 3.5-4.8 9.3-7.5 14.1-8.2 14.6-.5.3-.9 1-.9 1.5-.1 1.5-2.2 5.9-3.1 6.5-.5.3-.9.9-.8 1.2 0 .9-4.6 11.6-6.5 14.9-.8 1.6-1.2 2.8-.8 2.8.3 0 .2.6-.3 1.2-.5.7-2 4-3.3 7.3-1.2 3.3-2.8 7.3-3.5 9-1.1 2.6-4.7 13-5 14.5-.1.3-1.4 4.5-3 9.5-1.5 4.9-2.9 9.7-3 10.5-.1.8-.5 2.2-.8 3-.3.8-1.3 4.9-2.2 9-.8 4.1-1.8 8.6-2.1 10-1.4 6.3-2.5 11.8-3 15.5-.3 2.2-.7 4.9-.9 6-.1 1.1-.6 4.3-1 7-.4 2.8-.8 6.1-1 7.5-2.6 17.7-2.6 74.9-.1 89 .3 1.4.7 5 1 8 .3 3 .8 6.6 1.1 8 .3 1.4.8 4.1 1 6 .9 5.4 1.1 6.9 3 15.5 2.5 11.7 2.7 12.7 4.8 20.5 3.6 13.4 4.9 17.6 5.8 19.3.5 1 .7 2.2.4 2.7-.4.6-.2 1 .3 1s.9.6 1 1.2c.1 2.4 11 30.8 12.1 31.8.3.3.7 1.2.9 2 .5 2.4 12.2 25.8 17.4 34.8 2.6 4.6 4.8 8.8 4.8 9.3s.3.9.8.9c.4 0 1.8 2 3.1 4.5s2.8 4.5 3.2 4.5c.5 0 .9.5.9 1.1 0 1.3 10.9 17.2 12.2 17.7.4.2.8.8.8 1.4 0 .6 2 3.5 4.5 6.4 2.5 2.8 4.5 5.7 4.5 6.2 0 .6.4 1.2.9 1.4.4.2 3.5 3.4 6.7 7.3 3.2 3.8 7.2 8.4 8.9 10.2 22.1 23.1 35.7 35.5 55 49.9 2.8 2 5.2 4.1 5.3 4.6.2.4.8.8 1.4.8.6 0 3.8 1.9 7.2 4.3 6.3 4.5 20.4 13.3 29 18.2 5 2.8 24.7 12.8 25.6 13 .3.1 3.6 1.6 7.4 3.3 3.8 1.8 7 3.2 7.2 3.2.1 0 1.5.5 3.1 1.2 1.5.6 3.3 1.2 4 1.4.7.1 2.7.9 4.4 1.8 1.8.9 3.6 1.6 4 1.6.4 0 2 .5 3.6 1.2 1.5.6 3 1.2 3.3 1.3.3 0 4.6 1.4 9.5 3 5 1.6 9.5 3 10 3.1.6.1 3 .7 5.5 1.4s5.2 1.4 6 1.6c16.9 3.8 15.9 3.6 25.5 5.4 7.1 1.3 11.3 1.9 17 2.5 2.8.3 6 .8 7.2 1 11.9 2.6 74.1 2.6 86.8 0 1.1-.2 4-.6 6.5-.9 10.4-1.3 12-1.5 25-4 19-3.8 48.9-12.4 62.5-18.1 1.7-.7 6.8-2.9 11.5-4.9 4.7-2 9.1-3.6 9.8-3.6.6 0 1.2-.5 1.2-1 0-.6.5-1 1.2-1 4.1 0 53.3-28.1 54.6-31.2.2-.4.8-.8 1.3-.8 1.4 0 25.3-17.9 32.5-24.5.7-.5 4.7-4.2 8.9-8 9.7-8.7 16.6-15.6 26.4-26.4 4.2-4.7 8.4-9.3 9.4-10.3.9-1 1.7-2.2 1.7-2.7s.4-1.1.9-1.3c3.2-1.2 27.4-35.9 38.3-54.8 9.4-16.5 26.8-54.2 28.2-61.4.2-.6.8-2.2 1.4-3.6 2.1-4.7 10.2-32.6 11.8-40.3.2-1 .5-2.6.8-3.5.3-.9.8-3.5 1.2-5.7.3-2.2.7-4.2.9-4.5.2-.3.6-2.4.9-4.6.4-2.2.8-4.9 1-6.1.3-1.2.7-4.3 1.1-7 .4-2.6.9-5.9 1.1-7.3.8-5.1 1.8-14.6 1.8-18.2.1-2.1.4-3.8.7-3.8.8 0 .3-57.7-.6-66-.8-7.5-1.2-10.5-1.4-10.5-.1 0-.4-2.3-.6-5-.5-5.8-1.1-10-1.9-13.5-.3-1.4-.8-4.1-1.1-6-.7-4.8-1.4-8.8-2.6-13.5-.5-2.2-1.2-5.1-1.5-6.5-1.1-5.5-1.3-6.6-2.4-10-.6-1.9-1.3-4.6-1.6-5.9-.6-2.9-7.1-23.8-8.4-26.6-1-2.4-2.3-5.8-2.4-6.5-.3-1.4-7.1-17.6-7.5-18-.3-.3-.7-1.2-.9-2-.3-1.4-13.1-27.7-15.1-31-6.1-10-9.1-15.2-9.1-15.5 0-.4-10.3-16.3-12.4-19-.8-1.1-5.2-7-9.7-13-8.7-11.7-10.9-14.4-22.2-26.8-11.2-12.4-28-28.6-38.7-37.3-1.9-1.6-3.7-3.1-4-3.4-.8-.9-13.1-10.2-16.8-12.7-1.8-1.3-3.8-2.8-4.5-3.4-1.6-1.4-23.4-15.5-26.7-17.3-1.4-.7-5.4-2.9-9-4.9-11.6-6.5-41-20.4-45-21.3-.5-.1-5.2-1.9-8-3.1-1.9-.8-2-.8-5.5-1.8-1.6-.4-3.4-1.1-4-1.5-.8-.6-10-3.4-11.5-3.5-.3 0-.9-.3-1.5-.6-.9-.6-4.3-1.5-8.5-2.4-.8-.2-4.9-1.2-9-2.3-4.1-1.1-8.8-2.3-10.5-2.6-1.6-.2-4.1-.7-5.5-1-11.8-2.6-17.8-3.5-33-5.1-3.6-.4-7.6-.9-9-1.2-2.8-.5-56.6-1.3-57.2-.8z" />
</svg>
