<svg xmlns="http://www.w3.org/2000/svg" viewBox="0 0 600.1 143.8" style="enable-background:new 0 0 600.1 143.8" xml:space="preserve"><path d="M29.1 0v22.3h14V14h84.1v84.2h-84V53h-14v59.3h112.2V0H29.1zM0 31.6v112.2h112.2v-23.2h-14v9.2H14V45.6h84.1v44.3h14V31.5H0v.1z" style="fill:#0082d7"/><path d="M213.6 73.4h-17.5V45.9h18.2c9.6 0 15.7 5.6 15.7 14.1-.1 8.3-6.1 13.4-16.4 13.4zm-17.5-60.8h15.3c9.6 0 15 4.7 15 12.3 0 8.8-5.6 14.3-14.1 14.3H196l.1-26.6c-.1 0 0 0 0 0zm26.7 29.2c8-2.4 12.3-8.7 12.3-17.6 0-11.8-8.8-18.8-23.7-18.8h-23.7v74.9h25.9c15.7 0 25-7.6 25-20.5 0-8.8-5.9-15.6-15.8-18zM523.8 46.2h-31.5v27.2h35.1v7.1h-43.5v-75h43.2v7.1h-34.8v26.8h31.5v6.8zM257.4 80.4h8.4v-75h-8.4v75zM305 12.6h-21.1V5.5h50.5v7.1h-21v67.8H305V12.6zm41.5 0h21.2v67.8h8.4V12.6h21V5.5h-50.5l-.1 7.1c.1 0 0 0 0 0zM577 42.2l22.3-36.6h-10.2l-16.7 29.7-.7 2.9-.7-2.9-16.7-29.7h-10.1l22.3 36.6-22.9 38.3h10.3l17.2-30.8.7-2.9.7 2.9 17.3 30.8h10.3L577 42.2zM448.4 52.6l-2.2-2.2c10-2.3 16.3-9.9 16.3-22 0-14.4-9.7-22.9-26.3-22.9h-21.6v74.9h8.4v-29h16.2l16.3 29h10l-17.1-27.8zm-11.1-7.8H423l-.1-32.1h14.9c10.2 0 16.2 5.8 16.2 15.8 0 10.9-6.7 16.3-16.7 16.3zM213.5 115.6h12.1v16.6c-3.8 1.2-7.7 1.8-11.6 1.8-5 0-8.8-1.5-11.6-4.4-2.7-3-4.1-7.1-4.1-12.5 0-5.3 1.5-9.5 4.6-12.5s7.3-4.5 12.6-4.5c3.4 0 6.7.7 9.8 2l-1.9 4.5c-2.5-1.2-5.3-1.8-8-1.8-3.5 0-6.3 1.1-8.4 3.3-2 2.2-3.1 5.2-3.1 9.1 0 4 .9 7.1 2.8 9.2 1.8 2.1 4.5 3.1 8 3.1 1.7 0 3.6-.2 5.6-.7v-8.5h-6.8v-4.7zm61.7 17.9v-33h5.4v28.4h14v4.6h-19.4zm96-16.5c0 5.4-1.3 9.5-4 12.5s-6.5 4.5-11.4 4.5c-5 0-8.8-1.5-11.5-4.4-2.7-3-4-7.2-4-12.6s1.3-9.6 4-12.5 6.5-4.4 11.5-4.4c4.9 0 8.7 1.5 11.4 4.4s4 7.1 4 12.5zm-25.2 0c0 4.1.8 7.1 2.5 9.3 1.6 2.1 4.1 3.1 7.3 3.1s5.6-1 7.2-3.1 2.5-5.2 2.5-9.3c0-4-.8-7.1-2.4-9.2s-4-3.1-7.2-3.1-5.7 1-7.3 3.1c-1.8 2.1-2.6 5.1-2.6 9.2zm73.9-16.5h9.8c4.5 0 7.8.7 9.8 2s3 3.4 3 6.3c0 1.9-.5 3.5-1.5 4.8s-2.4 2.1-4.3 2.4v.2c2.3.4 4 1.3 5.1 2.6 1.1 1.3 1.6 3 1.6 5.2 0 3-1 5.3-3.1 7s-4.9 2.5-8.6 2.5h-11.9c.1 0 .1-33 .1-33zm5.4 13.7h5.2c2.3 0 3.9-.3 4.9-1.1 1-.7 1.6-1.9 1.6-3.7 0-1.6-.6-2.7-1.7-3.4-1.1-.7-2.9-1-5.3-1h-4.7v9.2zm0 4.3V129h5.7c2.3 0 4-.4 5.1-1.3 1.2-.9 1.7-2.2 1.7-4.1 0-1.7-.6-3-1.8-3.8-1.2-.8-3-1.2-5.3-1.2 0-.1-5.4-.1-5.4-.1zm87.2 15-3.3-9.2h-12.6l-3.2 9.2h-5.8l12.3-33.1h5.9l12.3 33.1h-5.6zm-4.7-13.8-3.1-9c-.7-1.9-1.3-3.8-1.8-5.7-.5 2.1-1.1 4.1-1.8 6.1l-3 8.6h9.7zm56.4 13.8v-33h5.4v28.4h14v4.6h-19.4z"/></svg>