<?xml version="1.0" encoding="utf-8"?>
<!-- Generator: Adobe Illustrator 25.4.1, SVG Export Plug-In . SVG Version: 6.00 Build 0)  -->
<svg version="1.1" id="layer" xmlns="http://www.w3.org/2000/svg" xmlns:xlink="http://www.w3.org/1999/xlink" x="0px" y="0px"
	 viewBox="0 0 600.1 143.8" style="enable-background:new 0 0 600.1 143.8;" xml:space="preserve">
<style type="text/css">
	.st0{fill:#0082D7;}
</style>
<g>
	<g id="Symbols">
		<g id="bittrex-logo-mark">
			<path id="Logo-Mark" class="st0" d="M29.1,0v22.3h14V14h84.1v84.2h-84V53h-14v59.3h112.2V0H29.1z M0,31.6v112.2h112.2v-23.2h-14
				v9.2H14V45.6h84.1v44.3h14V31.5H0V31.6z"/>
		</g>
	</g>
	<path d="M213.6,73.4h-17.5V45.9h18.2c9.6,0,15.7,5.6,15.7,14.1C229.9,68.3,223.9,73.4,213.6,73.4z M196.1,12.6h15.3
		c9.6,0,15,4.7,15,12.3c0,8.8-5.6,14.3-14.1,14.3H196L196.1,12.6C196,12.6,196.1,12.6,196.1,12.6z M222.8,41.8
		c8-2.4,12.3-8.7,12.3-17.6c0-11.8-8.8-18.8-23.7-18.8h-23.7v74.9h25.9c15.7,0,25-7.6,25-20.5C238.6,51,232.7,44.2,222.8,41.8
		L222.8,41.8z"/>
	<path d="M523.8,46.2h-31.5v27.2h35.1v7.1h-43.5v-75h43.2v7.1h-34.8v26.8h31.5V46.2z M257.4,80.4h8.4v-75h-8.4V80.4z M305,12.6
		h-21.1V5.5h50.5v7.1h-21v67.8H305V12.6L305,12.6z M346.5,12.6h21.2v67.8h8.4V12.6h21V5.5h-50.5L346.5,12.6
		C346.6,12.6,346.5,12.6,346.5,12.6z M577,42.2l22.3-36.6h-10.2l-16.7,29.7l-0.7,2.9l-0.7-2.9L554.3,5.6h-10.1l22.3,36.6l-22.9,38.3
		h10.3l17.2-30.8l0.7-2.9l0.7,2.9l17.3,30.8h10.3L577,42.2L577,42.2z"/>
	<path d="M448.4,52.6l-2.2-2.2c10-2.3,16.3-9.9,16.3-22c0-14.4-9.7-22.9-26.3-22.9h-21.6v74.9h8.4v-29h16.2l16.3,29h10L448.4,52.6z
		 M437.3,44.8H423l-0.1-32.1h14.9c10.2,0,16.2,5.8,16.2,15.8C454,39.4,447.3,44.8,437.3,44.8z"/>
	<path d="M213.5,115.6h12.1v16.6c-3.8,1.2-7.7,1.8-11.6,1.8c-5,0-8.8-1.5-11.6-4.4c-2.7-3-4.1-7.1-4.1-12.5c0-5.3,1.5-9.5,4.6-12.5
		s7.3-4.5,12.6-4.5c3.4,0,6.7,0.7,9.8,2l-1.9,4.5c-2.5-1.2-5.3-1.8-8-1.8c-3.5,0-6.3,1.1-8.4,3.3c-2,2.2-3.1,5.2-3.1,9.1
		c0,4,0.9,7.1,2.8,9.2c1.8,2.1,4.5,3.1,8,3.1c1.7,0,3.6-0.2,5.6-0.7v-8.5h-6.8L213.5,115.6L213.5,115.6z M275.2,133.5v-33h5.4v28.4
		h14v4.6H275.2z M371.2,117c0,5.4-1.3,9.5-4,12.5s-6.5,4.5-11.4,4.5c-5,0-8.8-1.5-11.5-4.4c-2.7-3-4-7.2-4-12.6s1.3-9.6,4-12.5
		s6.5-4.4,11.5-4.4c4.9,0,8.7,1.5,11.4,4.4S371.2,111.6,371.2,117z M346,117c0,4.1,0.8,7.1,2.5,9.3c1.6,2.1,4.1,3.1,7.3,3.1
		c3.2,0,5.6-1,7.2-3.1s2.5-5.2,2.5-9.3c0-4-0.8-7.1-2.4-9.2s-4-3.1-7.2-3.1s-5.7,1-7.3,3.1C346.8,109.9,346,112.9,346,117L346,117z
		 M419.9,100.5h9.8c4.5,0,7.8,0.7,9.8,2s3,3.4,3,6.3c0,1.9-0.5,3.5-1.5,4.8s-2.4,2.1-4.3,2.4v0.2c2.3,0.4,4,1.3,5.1,2.6
		c1.1,1.3,1.6,3,1.6,5.2c0,3-1,5.3-3.1,7s-4.9,2.5-8.6,2.5h-11.9C419.9,133.5,419.9,100.5,419.9,100.5z M425.3,114.2h5.2
		c2.3,0,3.9-0.3,4.9-1.1c1-0.7,1.6-1.9,1.6-3.7c0-1.6-0.6-2.7-1.7-3.4c-1.1-0.7-2.9-1-5.3-1h-4.7V114.2L425.3,114.2z M425.3,118.5
		V129h5.7c2.3,0,4-0.4,5.1-1.3c1.2-0.9,1.7-2.2,1.7-4.1c0-1.7-0.6-3-1.8-3.8c-1.2-0.8-3-1.2-5.3-1.2
		C430.7,118.5,425.3,118.5,425.3,118.5z M512.5,133.5l-3.3-9.2h-12.6l-3.2,9.2h-5.8l12.3-33.1h5.9l12.3,33.1
		C518.2,133.5,512.5,133.5,512.5,133.5z M507.8,119.7l-3.1-9c-0.7-1.9-1.3-3.8-1.8-5.7c-0.5,2.1-1.1,4.1-1.8,6.1l-3,8.6H507.8
		L507.8,119.7z M564.2,133.5v-33h5.4v28.4h14v4.6C583.5,133.5,564.2,133.5,564.2,133.5z"/>
</g>
</svg>
