<svg version="1.1" id="图层_1" xmlns="http://www.w3.org/2000/svg" x="0" y="0" viewBox="0 0 700 161.7" style="enable-background:new 0 0 700 161.7" xml:space="preserve"><style>.st0{fill:#23af91}</style><path class="st0" d="M551 80.8c0-4.1-.1-8-.2-11.6-.1-3.4-.4-6.8-1-10.1-.5-3-1.5-6-2.8-8.8-1.4-2.9-3.3-5.5-5.6-7.7-3.2-3.3-7.1-6-11.3-7.8-4.6-1.9-9.5-2.8-14.5-2.7-5-.1-10 .8-14.6 2.7-4.3 1.8-8.1 4.5-11.4 7.8-2.3 2.2-4.1 4.8-5.5 7.7-1.3 2.8-2.3 5.8-2.8 8.8-.6 3.3-.9 6.7-1 10.1-.1 3.6-.1 7.5-.1 11.6s0 8 .1 11.6c.1 3.4.4 6.8 1 10.1.5 3 1.5 6 2.8 8.8 1.4 2.9 3.2 5.5 5.5 7.7 3.3 3.3 7.1 6 11.4 7.8 4.6 1.9 9.6 2.8 14.6 2.7 5 .1 9.9-.8 14.5-2.7 4.2-1.8 8.1-4.5 11.3-7.8 2.3-2.2 4.2-4.8 5.6-7.7 1.3-2.8 2.3-5.8 2.8-8.8.6-3.3.9-6.7 1-10.1.1-3.6.2-7.5.2-11.6zm-18.7 0c0 4.6-.1 8.4-.3 11.4-.1 2.5-.3 5-.7 7.5-.3 1.6-.8 3.2-1.5 4.7-.6 1.2-1.4 2.3-2.3 3.3-1.4 1.6-3.1 2.9-5 3.7-2.2.9-4.5 1.4-6.9 1.4-2.4 0-4.8-.5-7-1.4-2-.8-3.7-2.1-5.1-3.7-.9-1-1.7-2.1-2.3-3.3-.7-1.5-1.1-3.1-1.4-4.7-.4-2.5-.6-5-.7-7.5-.1-3-.2-6.8-.2-11.4s.1-8.4.2-11.4c.1-2.5.3-5 .7-7.5.3-1.6.7-3.2 1.4-4.7.6-1.2 1.4-2.3 2.3-3.3 1.4-1.6 3.1-2.9 5.1-3.7 2.2-.9 4.6-1.4 7-1.4 2.4 0 4.7.5 6.9 1.4 1.9.8 3.6 2.1 5 3.7.9 1 1.7 2.1 2.3 3.3.7 1.5 1.2 3.1 1.5 4.7.4 2.5.6 5 .7 7.5.2 3 .3 6.8.3 11.4zM700 34.6c.1-.9-.6-1.6-1.5-1.7h-15.6c-.9.1-1.6.8-1.6 1.7v57l-37.6-58.2c-.2-.4-.7-.6-1.1-.5h-14.3c-.9 0-1.6.7-1.6 1.6v92.6c0 .9.7 1.6 1.6 1.6h15.4c.9 0 1.6-.7 1.7-1.6V69.9l37.6 58.3c.2.4.7.6 1.1.5h14.3c.9 0 1.6-.7 1.6-1.6V34.6zM596.6 34.6c0-.9-.8-1.7-1.7-1.7h-15.4c-.9.1-1.6.8-1.6 1.7V127c0 .9.7 1.6 1.6 1.7h15.4c.9 0 1.7-.8 1.7-1.7V34.6zM412 80.8c0-4.6 0-8.4.2-11.5.1-2.5.3-5 .7-7.4 1.4-8.3 7.7-13.1 15.8-13.1 5.2 0 10 2 13 6.4 1.5 2 2.5 4.4 3 6.8.1.2.2.4.5.4h18.2c.3 0 .4-.2.3-.5-2-11.2-8-21.3-18.5-26.3-5.2-2.4-10.9-3.6-16.7-3.5-9.7-.2-19 3.6-25.8 10.5-4 3.9-6.7 8.9-7.8 14.4-1 5.4-1.6 13.3-1.6 23.8s.6 18.4 1.6 23.8c1.1 5.5 3.8 10.5 7.8 14.4 6.8 6.9 16.1 10.7 25.8 10.5 5.8.1 11.5-1.1 16.7-3.5 10.5-5 16.5-15.1 18.5-26.3.1-.3 0-.5-.3-.5h-18.2c-.3 0-.4.2-.5.4-.5 2.4-1.5 4.8-3 6.8-3 4.4-7.8 6.4-13 6.4-8.1 0-14.4-4.8-15.8-13.1-.4-2.4-.6-4.9-.7-7.4-.2-3.1-.2-6.9-.2-11.5zM220.3 34.5c0-.9-.7-1.6-1.6-1.6h-15.4c-.9 0-1.6.7-1.7 1.6v92.6c.1.9.8 1.6 1.7 1.6h15.4c.9 0 1.6-.7 1.6-1.6V99.9l12.4-14.8 25.4 43.1c.2.3.5.5.9.5h18.8c.8 0 1-.6.5-1.3L245.1 71l30.5-36.6c.6-.8.4-1.5-.6-1.5h-20.5c-.2 0-.5.1-.6.3l-33.6 40.3v-39zM332.6 112.8c-8.6 0-16.5-8-16.5-17.6V34.5c0-.9-.7-1.6-1.6-1.6H299c-.9 0-1.6.7-1.6 1.6V95c0 21.1 15.8 34.5 35.2 34.5s35.3-13.4 35.3-34.5V34.5c-.1-.9-.8-1.6-1.7-1.6h-15.4c-.9 0-1.6.7-1.6 1.6v60.7c0 9.6-7.9 17.6-16.6 17.6z"/><path d="m46.6 80.8 47.9 47.9 30.2-30.2c5.3-5.3 14-5.3 19.3 0 5.3 5.3 5.3 14 0 19.3l-39.8 39.9c-5.4 5.3-14 5.3-19.4 0l-57.5-57.6v34.2c.6 7.5-4.9 14.2-12.5 14.8-7.5.6-14.2-4.9-14.8-12.5-.1-.8-.1-1.6 0-2.3v-107c-.6-7.5 4.9-14.2 12.5-14.8 7.5-.6 14.2 5 14.8 12.5.1.8.1 1.6 0 2.3v34.2L84.8 3.9c5.4-5.3 14-5.3 19.4 0L144 43.8c5.3 5.3 5.3 14 0 19.3s-14 5.3-19.3 0L94.5 32.9 46.6 80.8zm47.9-13.7c-7.6 0-13.7 6.1-13.7 13.7s6.1 13.7 13.7 13.7 13.7-6.1 13.7-13.7c0-7.5-6.1-13.7-13.7-13.7z" style="fill-rule:evenodd;clip-rule:evenodd;fill:#23af91"/></svg>