<svg xmlns="http://www.w3.org/2000/svg" viewBox="0 0 28 28"><g style="fill:none;fill-rule:evenodd;stroke:none;stroke-width:1"><path d="M-12.706-13.896h150v56h-150z"/><path d="m23.373 28.014 8.282 8.283 5.228-5.227a2.365 2.365 0 0 1 3.339 3.339l-6.899 6.9a2.381 2.381 0 0 1-3.339 0l-9.953-9.956v5.918a2.365 2.365 0 1 1-4.729 0V18.75a2.365 2.365 0 0 1 4.73 0v5.917l9.95-9.953a2.38 2.38 0 0 1 3.34 0l6.904 6.899a2.365 2.365 0 0 1-3.34 3.339l-5.227-5.228zm8.286-2.367a2.367 2.367 0 1 0-.003 4.737 2.367 2.367 0 0 0 .003-4.738z" style="fill:#23af91;fill-rule:evenodd;stroke-width:1" transform="translate(-14 -14)"/></g></svg>