<?xml version="1.0" encoding="utf-8"?>
<!-- Generator: Adobe Illustrator 25.4.1, SVG Export Plug-In . SVG Version: 6.00 Build 0)  -->
<svg version="1.1" id="图层_1" xmlns="http://www.w3.org/2000/svg" xmlns:xlink="http://www.w3.org/1999/xlink" x="0px" y="0px"
	 viewBox="0 0 700 161.7" style="enable-background:new 0 0 700 161.7;" xml:space="preserve">
<style type="text/css">
	.st0{fill:#23AF91;}
	.st1{fill-rule:evenodd;clip-rule:evenodd;fill:#23AF91;}
</style>
<path class="st0" d="M551,80.8c0-4.1-0.1-8-0.2-11.6c-0.1-3.4-0.4-6.8-1-10.1c-0.5-3-1.5-6-2.8-8.8c-1.4-2.9-3.3-5.5-5.6-7.7
	c-3.2-3.3-7.1-6-11.3-7.8c-4.6-1.9-9.5-2.8-14.5-2.7c-5-0.1-10,0.8-14.6,2.7c-4.3,1.8-8.1,4.5-11.4,7.8c-2.3,2.2-4.1,4.8-5.5,7.7
	c-1.3,2.8-2.3,5.8-2.8,8.8c-0.6,3.3-0.9,6.7-1,10.1c-0.1,3.6-0.1,7.5-0.1,11.6s0,8,0.1,11.6c0.1,3.4,0.4,6.8,1,10.1
	c0.5,3,1.5,6,2.8,8.8c1.4,2.9,3.2,5.5,5.5,7.7c3.3,3.3,7.1,6,11.4,7.8c4.6,1.9,9.6,2.8,14.6,2.7c5,0.1,9.9-0.8,14.5-2.7
	c4.2-1.8,8.1-4.5,11.3-7.8c2.3-2.2,4.2-4.8,5.6-7.7c1.3-2.8,2.3-5.8,2.8-8.8c0.6-3.3,0.9-6.7,1-10.1C550.9,88.8,551,84.9,551,80.8
	L551,80.8z M532.3,80.8c0,4.6-0.1,8.4-0.3,11.4c-0.1,2.5-0.3,5-0.7,7.5c-0.3,1.6-0.8,3.2-1.5,4.7c-0.6,1.2-1.4,2.3-2.3,3.3
	c-1.4,1.6-3.1,2.9-5,3.7c-2.2,0.9-4.5,1.4-6.9,1.4c-2.4,0-4.8-0.5-7-1.4c-2-0.8-3.7-2.1-5.1-3.7c-0.9-1-1.7-2.1-2.3-3.3
	c-0.7-1.5-1.1-3.1-1.4-4.7c-0.4-2.5-0.6-5-0.7-7.5c-0.1-3-0.2-6.8-0.2-11.4s0.1-8.4,0.2-11.4c0.1-2.5,0.3-5,0.7-7.5
	c0.3-1.6,0.7-3.2,1.4-4.7c0.6-1.2,1.4-2.3,2.3-3.3c1.4-1.6,3.1-2.9,5.1-3.7c2.2-0.9,4.6-1.4,7-1.4c2.4,0,4.7,0.5,6.9,1.4
	c1.9,0.8,3.6,2.1,5,3.7c0.9,1,1.7,2.1,2.3,3.3c0.7,1.5,1.2,3.1,1.5,4.7c0.4,2.5,0.6,5,0.7,7.5C532.2,72.4,532.3,76.2,532.3,80.8z"/>
<path class="st0" d="M700,34.6c0.1-0.9-0.6-1.6-1.5-1.7c0,0-0.1,0-0.1,0h-15.5c-0.9,0.1-1.6,0.8-1.6,1.7v57l-37.6-58.2
	c-0.2-0.4-0.7-0.6-1.1-0.5h-14.3c-0.9,0-1.6,0.7-1.6,1.6v92.6c0,0.9,0.7,1.6,1.6,1.6h15.4c0.9,0,1.6-0.7,1.7-1.6V69.9l37.6,58.3
	c0.2,0.4,0.7,0.6,1.1,0.5h14.3c0.9,0,1.6-0.7,1.6-1.6V34.6z"/>
<path class="st0" d="M596.6,34.6c0-0.9-0.8-1.7-1.7-1.7l0,0h-15.4c-0.9,0.1-1.6,0.8-1.6,1.7V127c0,0.9,0.7,1.6,1.6,1.7h15.4
	c0.9,0,1.7-0.8,1.7-1.7v0L596.6,34.6z"/>
<path class="st0" d="M412,80.8c0-4.6,0-8.4,0.2-11.5c0.1-2.5,0.3-5,0.7-7.4c1.4-8.3,7.7-13.1,15.8-13.1c5.2,0,10,2,13,6.4
	c1.5,2,2.5,4.4,3,6.8c0.1,0.2,0.2,0.4,0.5,0.4h18.2c0.3,0,0.4-0.2,0.3-0.5c-2-11.2-8-21.3-18.5-26.3c-5.2-2.4-10.9-3.6-16.7-3.5
	c-9.7-0.2-19,3.6-25.8,10.5c-4,3.9-6.7,8.9-7.8,14.4c-1,5.4-1.6,13.3-1.6,23.8s0.6,18.4,1.6,23.8c1.1,5.5,3.8,10.5,7.8,14.4
	c6.8,6.9,16.1,10.7,25.8,10.5c5.8,0.1,11.5-1.1,16.7-3.5c10.5-5,16.5-15.1,18.5-26.3c0.1-0.3,0-0.5-0.3-0.5h-18.2
	c-0.3,0-0.4,0.2-0.5,0.4c-0.5,2.4-1.5,4.8-3,6.8c-3,4.4-7.8,6.4-13,6.4c-8.1,0-14.4-4.8-15.8-13.1c-0.4-2.4-0.6-4.9-0.7-7.4
	C412,89.2,412,85.4,412,80.8z"/>
<path class="st0" d="M220.3,34.5c0-0.9-0.7-1.6-1.6-1.6h-15.4c-0.9,0-1.6,0.7-1.7,1.6v92.6c0.1,0.9,0.8,1.6,1.7,1.6h15.4
	c0.9,0,1.6-0.7,1.6-1.6V99.9l12.4-14.8l25.4,43.1c0.2,0.3,0.5,0.5,0.9,0.5h18.8c0.8,0,1-0.6,0.5-1.3L245.1,71l30.5-36.6
	c0.6-0.8,0.4-1.5-0.6-1.5h-20.5c-0.2,0-0.5,0.1-0.6,0.3l-33.6,40.3L220.3,34.5z"/>
<path class="st0" d="M332.6,112.8c-8.6,0-16.5-8-16.5-17.6V34.5c0-0.9-0.7-1.6-1.6-1.6H299c-0.9,0-1.6,0.7-1.6,1.6V95
	c0,21.1,15.8,34.5,35.2,34.5s35.3-13.4,35.3-34.5V34.5c-0.1-0.9-0.8-1.6-1.7-1.6h-15.4c-0.9,0-1.6,0.7-1.6,1.6v60.7
	C349.2,104.8,341.3,112.8,332.6,112.8z"/>
<path class="st1" d="M46.6,80.8l47.9,47.9l30.2-30.2c5.3-5.3,14-5.3,19.3,0c5.3,5.3,5.3,14,0,19.3l-39.8,39.9
	c-5.4,5.3-14,5.3-19.4,0l-57.5-57.6v34.2c0.6,7.5-4.9,14.2-12.5,14.8c-7.5,0.6-14.2-4.9-14.8-12.5c-0.1-0.8-0.1-1.6,0-2.3v-107
	c-0.6-7.5,4.9-14.2,12.5-14.8C20,11.9,26.7,17.5,27.3,25c0.1,0.8,0.1,1.6,0,2.3v34.2L84.8,3.9c5.4-5.3,14-5.3,19.4,0L144,43.8
	c5.3,5.3,5.3,14,0,19.3s-14,5.3-19.3,0l0,0L94.5,32.9L46.6,80.8z M94.5,67.1L94.5,67.1c-7.6,0-13.7,6.1-13.7,13.7
	s6.1,13.7,13.7,13.7c7.6,0,13.7-6.1,13.7-13.7C108.2,73.3,102.1,67.1,94.5,67.1L94.5,67.1z"/>
</svg>
