<svg width="400" height="486" viewBox="0 0 400 486" fill="none" xmlns="http://www.w3.org/2000/svg">
<rect x="0.437012" y="0.82666" width="398.981" height="484.718" rx="36" fill="#1F1C47"/>
<path d="M88.5493 270.671V350.787" stroke="#966ACC" stroke-width="4"/>
<rect x="60.5493" y="215.249" width="56" height="56" rx="10" stroke="#12C7BA" stroke-width="4"/>
<rect x="60.5493" y="352.788" width="56" height="56" rx="10" stroke="#966ACC" stroke-width="4"/>
<path d="M87.5401 258.636C88.122 259.124 88.9083 259.186 89.4583 258.649L93.3382 254.767C93.8779 254.219 93.8528 253.388 93.3256 252.849L91.4687 251L94.2199 248.259C94.7528 247.732 94.7367 246.888 94.2096 246.341L91.6992 243.82C95.1066 242.132 97.0201 239.307 97.0201 235.974C97.0201 231.27 93.2116 227.472 88.5032 227.472C83.7595 227.472 79.9761 231.247 79.9761 235.974C79.9761 239.359 81.9063 242.374 84.9638 243.754V255.549C84.9638 255.993 85.103 256.509 85.49 256.851L87.5401 258.636ZM88.5032 256.418L87.1335 255.061V242.116C84.2648 241.489 82.2124 238.97 82.2124 235.974C82.2124 232.515 85.0191 229.721 88.5032 229.721C91.9771 229.721 94.7689 232.515 94.7689 235.974C94.7689 238.947 92.7062 241.491 89.5709 242.193V244.898L91.9745 247.319L89.4015 249.854V252.12L91.0973 253.789L88.5032 256.418ZM88.5032 236.048C89.7347 236.048 90.7343 235.049 90.7343 233.809C90.7343 232.575 89.7347 231.578 88.5032 231.578C87.2511 231.578 86.2619 232.563 86.2619 233.809C86.2619 235.049 87.2614 236.048 88.5032 236.048Z" fill="#DBF7F5"/>
<path d="M87.5401 396.302C88.122 396.789 88.9083 396.852 89.4583 396.314L93.3382 392.432C93.8779 391.884 93.8528 391.054 93.3256 390.514L91.4687 388.665L94.2199 385.924C94.7528 385.397 94.7367 384.554 94.2096 384.006L91.6992 381.485C95.1066 379.798 97.0201 376.972 97.0201 373.639C97.0201 368.935 93.2116 365.137 88.5032 365.137C83.7595 365.137 79.9761 368.913 79.9761 373.639C79.9761 377.024 81.9063 380.039 84.9638 381.42V393.214C84.9638 393.658 85.103 394.174 85.49 394.517L87.5401 396.302ZM88.5032 394.084L87.1335 392.727V379.782C84.2648 379.154 82.2124 376.635 82.2124 373.639C82.2124 370.18 85.0191 367.386 88.5032 367.386C91.9771 367.386 94.7689 370.18 94.7689 373.639C94.7689 376.613 92.7062 379.156 89.5709 379.858V382.563L91.9745 384.984L89.4015 387.519V389.786L91.0973 391.454L88.5032 394.084ZM88.5032 373.714C89.7347 373.714 90.7343 372.714 90.7343 371.475C90.7343 370.241 89.7347 369.244 88.5032 369.244C87.2511 369.244 86.2619 370.228 86.2619 371.475C86.2619 372.714 87.2614 373.714 88.5032 373.714Z" fill="#966ACC"/>
<path d="M179.476 117.063C177.087 117.063 174.975 116.594 173.14 115.655C171.305 114.695 169.887 113.341 168.884 111.591C167.881 109.842 167.38 107.783 167.38 105.415C167.38 103.047 167.881 100.989 168.884 99.2393C169.887 97.4686 171.305 96.1139 173.14 95.1753C174.975 94.2153 177.087 93.7353 179.476 93.7353C181.097 93.7353 182.527 93.9059 183.764 94.2473C185.023 94.5673 186.175 95.0793 187.22 95.7833V100.423C186.281 99.6553 185.204 99.1006 183.988 98.7593C182.793 98.3966 181.428 98.2153 179.892 98.2153C178.463 98.2153 177.172 98.5139 176.02 99.1113C174.889 99.6873 173.993 100.519 173.332 101.607C172.671 102.695 172.34 103.965 172.34 105.415C172.34 106.887 172.639 108.178 173.236 109.287C173.855 110.375 174.719 111.218 175.828 111.815C176.937 112.413 178.217 112.711 179.668 112.711C180.991 112.711 182.143 112.477 183.124 112.007V107.687H179.508V104.103H187.828V114.887C185.716 116.338 182.932 117.063 179.476 117.063ZM190.551 101.223H195.223V103.431C195.842 102.685 196.706 102.119 197.815 101.735C198.925 101.33 200.183 101.127 201.591 101.127V104.807C200.119 104.807 198.818 105.031 197.687 105.479C196.578 105.927 195.81 106.61 195.383 107.527V116.583H190.551V101.223ZM211.784 117.063C209.928 117.063 208.296 116.733 206.888 116.071C205.502 115.389 204.424 114.439 203.656 113.223C202.91 111.986 202.536 110.546 202.536 108.903C202.536 107.303 202.91 105.885 203.656 104.647C204.424 103.41 205.502 102.45 206.888 101.767C208.296 101.085 209.928 100.743 211.784 100.743C213.619 100.743 215.23 101.085 216.616 101.767C218.024 102.45 219.102 103.41 219.848 104.647C220.616 105.885 221 107.303 221 108.903C221 110.546 220.616 111.986 219.848 113.223C219.102 114.439 218.035 115.389 216.648 116.071C215.262 116.733 213.64 117.063 211.784 117.063ZM211.784 113.287C213.086 113.287 214.12 112.893 214.888 112.103C215.656 111.293 216.04 110.226 216.04 108.903C216.04 107.538 215.656 106.471 214.888 105.703C214.142 104.914 213.107 104.519 211.784 104.519C210.462 104.519 209.416 104.914 208.648 105.703C207.88 106.471 207.496 107.538 207.496 108.903C207.496 110.226 207.88 111.293 208.648 112.103C209.438 112.893 210.483 113.287 211.784 113.287ZM229.819 117.063C227.729 117.063 226.161 116.498 225.115 115.367C224.07 114.215 223.547 112.69 223.547 110.791V101.223H228.379V110.279C228.379 112.285 229.307 113.287 231.163 113.287C231.974 113.287 232.731 113.095 233.435 112.711C234.139 112.327 234.726 111.751 235.195 110.983V101.223H240.027V116.583H235.355V114.727C234.673 115.517 233.841 116.103 232.859 116.487C231.899 116.871 230.886 117.063 229.819 117.063ZM243.395 101.223H248.067V102.919C249.624 101.469 251.544 100.743 253.827 100.743C255.427 100.743 256.835 101.085 258.051 101.767C259.288 102.429 260.248 103.378 260.931 104.615C261.614 105.831 261.955 107.25 261.955 108.871C261.955 110.471 261.614 111.89 260.931 113.127C260.248 114.365 259.288 115.335 258.051 116.039C256.835 116.722 255.427 117.063 253.827 117.063C252.739 117.063 251.704 116.903 250.723 116.583C249.742 116.263 248.91 115.805 248.227 115.207V123.591H243.395V101.223ZM252.611 113.287C253.912 113.287 254.968 112.882 255.779 112.071C256.611 111.261 257.027 110.194 257.027 108.871C257.027 107.549 256.611 106.493 255.779 105.703C254.968 104.914 253.912 104.519 252.611 104.519C251.608 104.519 250.712 104.786 249.923 105.319C249.134 105.853 248.568 106.557 248.227 107.431V110.343C248.547 111.239 249.102 111.954 249.891 112.487C250.702 113.021 251.608 113.287 252.611 113.287ZM281.208 98.2793H274.68V94.2153H292.6V98.2793H286.072V116.583H281.208V98.2793ZM296.582 98.8553C295.836 98.8553 295.206 98.6099 294.694 98.1193C294.182 97.6286 293.926 97.0099 293.926 96.2633C293.926 95.5379 294.182 94.9299 294.694 94.4393C295.206 93.9273 295.836 93.6713 296.582 93.6713C297.329 93.6713 297.958 93.9273 298.47 94.4393C298.982 94.9299 299.238 95.5379 299.238 96.2633C299.238 97.0099 298.982 97.6286 298.47 98.1193C297.958 98.6099 297.329 98.8553 296.582 98.8553ZM294.15 101.223H299.014V116.583H294.15V101.223ZM308.983 117.063C307.191 117.063 305.826 116.573 304.887 115.591C303.97 114.589 303.511 113.202 303.511 111.431V104.711H301.271V101.223H303.511V96.6153H308.343V101.223H311.959V104.711H308.343V110.791C308.343 111.687 308.514 112.338 308.855 112.743C309.197 113.127 309.805 113.319 310.679 113.319C311.383 113.319 312.055 113.149 312.695 112.807V116.423C311.714 116.85 310.477 117.063 308.983 117.063ZM314.926 92.9353H319.758V116.583H314.926V92.9353ZM331.946 117.063C329.002 117.063 326.687 116.359 325.002 114.951C323.316 113.522 322.474 111.527 322.474 108.967C322.474 106.429 323.22 104.423 324.714 102.951C326.228 101.479 328.383 100.743 331.178 100.743C333.012 100.743 334.57 101.085 335.85 101.767C337.13 102.45 338.1 103.399 338.762 104.615C339.423 105.81 339.754 107.165 339.754 108.679V110.631H327.082C327.423 112.594 329.258 113.575 332.586 113.575C333.567 113.575 334.58 113.49 335.626 113.319C336.671 113.149 337.578 112.914 338.346 112.615V116.007C337.599 116.327 336.639 116.583 335.466 116.775C334.292 116.967 333.119 117.063 331.946 117.063ZM335.178 107.495C335.114 106.471 334.73 105.682 334.026 105.127C333.322 104.551 332.351 104.263 331.114 104.263C329.898 104.263 328.938 104.551 328.234 105.127C327.53 105.703 327.146 106.493 327.082 107.495H335.178Z" fill="#C3F53A"/>
<path d="M179.476 254.81C177.087 254.81 174.975 254.34 173.14 253.402C171.305 252.442 169.887 251.087 168.884 249.338C167.881 247.588 167.38 245.53 167.38 243.162C167.38 240.794 167.881 238.735 168.884 236.986C169.887 235.215 171.305 233.86 173.14 232.922C174.975 231.962 177.087 231.482 179.476 231.482C182.569 231.482 185.151 232.186 187.22 233.594V238.202C186.281 237.412 185.204 236.847 183.988 236.506C182.793 236.143 181.428 235.962 179.892 235.962C177.567 235.962 175.721 236.612 174.356 237.914C173.012 239.194 172.34 240.943 172.34 243.162C172.34 245.402 173.023 247.172 174.388 248.474C175.753 249.754 177.588 250.394 179.892 250.394C181.471 250.394 182.868 250.212 184.084 249.85C185.3 249.466 186.431 248.858 187.476 248.026V252.634C185.513 254.084 182.847 254.81 179.476 254.81ZM198.003 254.81C196.147 254.81 194.515 254.479 193.107 253.818C191.72 253.135 190.643 252.186 189.875 250.97C189.128 249.732 188.755 248.292 188.755 246.65C188.755 245.05 189.128 243.631 189.875 242.394C190.643 241.156 191.72 240.196 193.107 239.514C194.515 238.831 196.147 238.49 198.003 238.49C199.838 238.49 201.448 238.831 202.835 239.514C204.243 240.196 205.32 241.156 206.067 242.394C206.835 243.631 207.219 245.05 207.219 246.65C207.219 248.292 206.835 249.732 206.067 250.97C205.32 252.186 204.254 253.135 202.867 253.818C201.48 254.479 199.859 254.81 198.003 254.81ZM198.003 251.034C199.304 251.034 200.339 250.639 201.107 249.85C201.875 249.039 202.259 247.972 202.259 246.65C202.259 245.284 201.875 244.218 201.107 243.45C200.36 242.66 199.326 242.266 198.003 242.266C196.68 242.266 195.635 242.66 194.867 243.45C194.099 244.218 193.715 245.284 193.715 246.65C193.715 247.972 194.099 249.039 194.867 249.85C195.656 250.639 196.702 251.034 198.003 251.034ZM209.926 238.97H214.438V240.826C215.1 240.079 215.868 239.503 216.742 239.098C217.617 238.692 218.524 238.49 219.462 238.49C220.636 238.49 221.574 238.682 222.278 239.066C222.982 239.428 223.537 239.972 223.942 240.698C224.604 239.994 225.404 239.45 226.342 239.066C227.302 238.682 228.252 238.49 229.19 238.49C231.153 238.49 232.55 238.991 233.382 239.994C234.236 240.996 234.662 242.447 234.662 244.346V254.33H230.054V245.018C230.054 244.036 229.862 243.332 229.478 242.906C229.094 242.479 228.476 242.266 227.622 242.266C226.428 242.266 225.468 242.735 224.742 243.674C224.785 244.356 224.806 244.911 224.806 245.338V254.33H220.166V244.858C220.166 243.919 219.996 243.258 219.654 242.874C219.334 242.468 218.769 242.266 217.958 242.266C216.7 242.266 215.58 242.98 214.598 244.41V254.33H209.926V238.97ZM237.864 238.97H242.536V240.666C244.093 239.215 246.013 238.49 248.296 238.49C249.896 238.49 251.304 238.831 252.52 239.514C253.757 240.175 254.717 241.124 255.4 242.362C256.082 243.578 256.424 244.996 256.424 246.618C256.424 248.218 256.082 249.636 255.4 250.874C254.717 252.111 253.757 253.082 252.52 253.786C251.304 254.468 249.896 254.81 248.296 254.81C247.208 254.81 246.173 254.65 245.192 254.33C244.21 254.01 243.378 253.551 242.696 252.954V261.338H237.864V238.97ZM247.08 251.034C248.381 251.034 249.437 250.628 250.248 249.818C251.08 249.007 251.496 247.94 251.496 246.618C251.496 245.295 251.08 244.239 250.248 243.45C249.437 242.66 248.381 242.266 247.08 242.266C246.077 242.266 245.181 242.532 244.392 243.066C243.602 243.599 243.037 244.303 242.696 245.178V248.09C243.016 248.986 243.57 249.7 244.36 250.234C245.17 250.767 246.077 251.034 247.08 251.034ZM259.145 230.682H263.977V254.33H259.145V230.682ZM276.164 254.81C273.22 254.81 270.906 254.106 269.22 252.698C267.535 251.268 266.692 249.274 266.692 246.714C266.692 244.175 267.439 242.17 268.932 240.698C270.447 239.226 272.602 238.49 275.396 238.49C277.231 238.49 278.788 238.831 280.068 239.514C281.348 240.196 282.319 241.146 282.98 242.362C283.642 243.556 283.972 244.911 283.972 246.426V248.378H271.3C271.642 250.34 273.476 251.322 276.804 251.322C277.786 251.322 278.799 251.236 279.844 251.066C280.89 250.895 281.796 250.66 282.564 250.362V253.754C281.818 254.074 280.858 254.33 279.684 254.522C278.511 254.714 277.338 254.81 276.164 254.81ZM279.396 245.242C279.332 244.218 278.948 243.428 278.244 242.874C277.54 242.298 276.57 242.01 275.332 242.01C274.116 242.01 273.156 242.298 272.452 242.874C271.748 243.45 271.364 244.239 271.3 245.242H279.396ZM293.077 254.81C291.285 254.81 289.92 254.319 288.981 253.338C288.064 252.335 287.605 250.948 287.605 249.178V242.458H285.365V238.97H287.605V234.362H292.437V238.97H296.053V242.458H292.437V248.538C292.437 249.434 292.608 250.084 292.949 250.49C293.29 250.874 293.898 251.066 294.773 251.066C295.477 251.066 296.149 250.895 296.789 250.554V254.17C295.808 254.596 294.57 254.81 293.077 254.81ZM307.852 254.81C304.908 254.81 302.593 254.106 300.908 252.698C299.223 251.268 298.38 249.274 298.38 246.714C298.38 244.175 299.127 242.17 300.62 240.698C302.135 239.226 304.289 238.49 307.084 238.49C308.919 238.49 310.476 238.831 311.756 239.514C313.036 240.196 314.007 241.146 314.668 242.362C315.329 243.556 315.66 244.911 315.66 246.426V248.378H302.988C303.329 250.34 305.164 251.322 308.492 251.322C309.473 251.322 310.487 251.236 311.532 251.066C312.577 250.895 313.484 250.66 314.252 250.362V253.754C313.505 254.074 312.545 254.33 311.372 254.522C310.199 254.714 309.025 254.81 307.852 254.81ZM311.084 245.242C311.02 244.218 310.636 243.428 309.932 242.874C309.228 242.298 308.257 242.01 307.02 242.01C305.804 242.01 304.844 242.298 304.14 242.874C303.436 243.45 303.052 244.239 302.988 245.242H311.084Z" fill="#DBF7F5"/>
<path d="M168.02 369.42H177.428C179.967 369.42 181.993 370.092 183.508 371.436C185.023 372.758 185.78 374.604 185.78 376.972C185.78 379.404 185.023 381.27 183.508 382.572C182.015 383.873 179.988 384.524 177.428 384.524H172.884V391.788H168.02V369.42ZM176.724 380.46C179.476 380.46 180.852 379.297 180.852 376.972C180.852 375.67 180.479 374.764 179.732 374.252C179.007 373.74 178.004 373.484 176.724 373.484H172.884V380.46H176.724ZM188.02 368.14H192.852V391.788H188.02V368.14ZM201.935 392.268C200.058 392.268 198.522 391.798 197.327 390.86C196.154 389.9 195.567 388.598 195.567 386.956C195.567 385.249 196.133 383.926 197.263 382.988C198.394 382.028 199.994 381.548 202.063 381.548C202.981 381.548 203.855 381.644 204.687 381.836C205.519 382.028 206.255 382.294 206.895 382.636V382.252C206.895 381.292 206.554 380.588 205.871 380.14C205.189 379.692 204.143 379.468 202.735 379.468C200.858 379.468 199.13 379.82 197.551 380.524V377.004C198.234 376.705 199.119 376.46 200.207 376.268C201.295 376.054 202.383 375.948 203.471 375.948C206.245 375.948 208.314 376.524 209.679 377.676C211.045 378.806 211.727 380.396 211.727 382.444V391.788H207.183V390.38C205.882 391.638 204.133 392.268 201.935 392.268ZM203.247 389.068C204.037 389.068 204.751 388.918 205.391 388.62C206.031 388.321 206.533 387.905 206.895 387.372V385.836C205.807 385.11 204.613 384.748 203.311 384.748C202.415 384.748 201.722 384.94 201.231 385.324C200.762 385.686 200.527 386.23 200.527 386.956C200.527 387.638 200.762 388.161 201.231 388.524C201.701 388.886 202.373 389.068 203.247 389.068ZM214.926 376.428H219.598V378.316C220.302 377.526 221.134 376.94 222.094 376.556C223.076 376.15 224.1 375.948 225.166 375.948C227.257 375.948 228.814 376.513 229.838 377.644C230.884 378.753 231.406 380.257 231.406 382.156V391.788H226.574V382.7C226.574 380.716 225.657 379.724 223.822 379.724C223.012 379.724 222.254 379.926 221.55 380.332C220.846 380.716 220.249 381.292 219.758 382.06V391.788H214.926V376.428ZM234.614 376.428H239.286V378.316C239.99 377.526 240.822 376.94 241.782 376.556C242.763 376.15 243.787 375.948 244.854 375.948C246.944 375.948 248.502 376.513 249.526 377.644C250.571 378.753 251.094 380.257 251.094 382.156V391.788H246.262V382.7C246.262 380.716 245.344 379.724 243.51 379.724C242.699 379.724 241.942 379.926 241.238 380.332C240.534 380.716 239.936 381.292 239.446 382.06V391.788H234.614V376.428ZM263.133 392.268C260.189 392.268 257.875 391.564 256.189 390.156C254.504 388.726 253.661 386.732 253.661 384.172C253.661 381.633 254.408 379.628 255.901 378.156C257.416 376.684 259.571 375.948 262.365 375.948C264.2 375.948 265.757 376.289 267.037 376.972C268.317 377.654 269.288 378.604 269.949 379.82C270.611 381.014 270.941 382.369 270.941 383.884V385.836H258.269C258.611 387.798 260.445 388.78 263.773 388.78C264.755 388.78 265.768 388.694 266.813 388.524C267.859 388.353 268.765 388.118 269.533 387.82V391.212C268.787 391.532 267.827 391.788 266.653 391.98C265.48 392.172 264.307 392.268 263.133 392.268ZM266.365 382.7C266.301 381.676 265.917 380.886 265.213 380.332C264.509 379.756 263.539 379.468 262.301 379.468C261.085 379.468 260.125 379.756 259.421 380.332C258.717 380.908 258.333 381.697 258.269 382.7H266.365ZM281.102 392.268C279.523 392.268 278.115 391.937 276.878 391.276C275.662 390.593 274.702 389.644 273.998 388.428C273.315 387.19 272.974 385.761 272.974 384.14C272.974 382.54 273.315 381.121 273.998 379.884C274.68 378.646 275.64 377.686 276.878 377.004C278.115 376.3 279.523 375.948 281.102 375.948C282.254 375.948 283.31 376.108 284.27 376.428C285.23 376.748 286.04 377.206 286.702 377.804V368.14H291.534V391.788H286.862V390.124C286.072 390.87 285.208 391.414 284.27 391.756C283.352 392.097 282.296 392.268 281.102 392.268ZM282.35 388.524C283.352 388.524 284.238 388.257 285.006 387.724C285.795 387.19 286.36 386.476 286.702 385.58V382.668C286.403 381.793 285.848 381.089 285.038 380.556C284.248 380.001 283.352 379.724 282.35 379.724C281.048 379.724 279.982 380.129 279.15 380.94C278.339 381.75 277.934 382.817 277.934 384.14C277.934 385.462 278.339 386.529 279.15 387.34C279.982 388.129 281.048 388.524 282.35 388.524Z" fill="#966ACC"/>
<path d="M88.5493 134.864V214.98" stroke="#12C7BA" stroke-width="4"/>
<rect x="61.4985" y="78.5835" width="53.9996" height="53.9996" rx="26.9998" stroke="#C3F53A" stroke-width="6"/>
<circle cx="88.4967" cy="105.583" r="16.4083" fill="#C3F53A"/>
</svg>
