<svg width="519" height="606" viewBox="0 0 519 606" fill="none" xmlns="http://www.w3.org/2000/svg">
<g filter="url(#filter0_d_16_66484)">
<rect x="60.0195" y="60.7576" width="398.981" height="484.718" rx="36" fill="#1F1C47"/>
</g>
<path d="M148.132 330.603V410.719" stroke="#966ACC" stroke-width="4"/>
<rect x="120.132" y="275.181" width="56" height="56" rx="10" stroke="#12C7BA" stroke-width="4"/>
<rect x="120.132" y="412.719" width="56" height="56" rx="10" stroke="#966ACC" stroke-width="4"/>
<path d="M147.123 318.567C147.705 319.054 148.491 319.117 149.041 318.58L152.921 314.697C153.46 314.15 153.435 313.319 152.908 312.779L151.051 310.93L153.802 308.19C154.335 307.662 154.319 306.819 153.792 306.271L151.282 303.751C154.689 302.063 156.603 299.237 156.603 295.904C156.603 291.201 152.794 287.402 148.086 287.402C143.342 287.402 139.559 291.178 139.559 295.904C139.559 299.289 141.489 302.305 144.546 303.685V315.479C144.546 315.923 144.686 316.439 145.072 316.782L147.123 318.567ZM148.086 316.349L146.716 314.992V302.047C143.847 301.419 141.795 298.901 141.795 295.904C141.795 292.445 144.602 289.651 148.086 289.651C151.56 289.651 154.351 292.445 154.351 295.904C154.351 298.878 152.289 301.422 149.153 302.123V304.829L151.557 307.249L148.984 309.785V312.051L150.68 313.719L148.086 316.349ZM148.086 295.979C149.317 295.979 150.317 294.979 150.317 293.74C150.317 292.506 149.317 291.509 148.086 291.509C146.834 291.509 145.844 292.494 145.844 293.74C145.844 294.979 146.844 295.979 148.086 295.979Z" fill="#DBF7F5"/>
<path d="M147.123 456.233C147.705 456.72 148.491 456.783 149.041 456.246L152.921 452.363C153.46 451.816 153.435 450.985 152.908 450.445L151.051 448.596L153.802 445.856C154.335 445.328 154.319 444.485 153.792 443.937L151.282 441.417C154.689 439.729 156.603 436.903 156.603 433.57C156.603 428.867 152.794 425.068 148.086 425.068C143.342 425.068 139.559 428.844 139.559 433.57C139.559 436.955 141.489 439.971 144.546 441.351V453.145C144.546 453.589 144.686 454.105 145.072 454.448L147.123 456.233ZM148.086 454.015L146.716 452.658V439.713C143.847 439.085 141.795 436.567 141.795 433.57C141.795 430.111 144.602 427.317 148.086 427.317C151.56 427.317 154.351 430.111 154.351 433.57C154.351 436.544 152.289 439.088 149.153 439.789V442.495L151.557 444.915L148.984 447.451V449.717L150.68 451.386L148.086 454.015ZM148.086 433.645C149.317 433.645 150.317 432.645 150.317 431.406C150.317 430.172 149.317 429.175 148.086 429.175C146.834 429.175 145.844 430.16 145.844 431.406C145.844 432.645 146.844 433.645 148.086 433.645Z" fill="#966ACC"/>
<path d="M239.058 176.995C236.669 176.995 234.557 176.525 232.722 175.587C230.888 174.627 229.469 173.272 228.466 171.523C227.464 169.773 226.962 167.715 226.962 165.347C226.962 162.979 227.464 160.92 228.466 159.171C229.469 157.4 230.888 156.045 232.722 155.107C234.557 154.147 236.669 153.667 239.058 153.667C240.68 153.667 242.109 153.837 243.346 154.179C244.605 154.499 245.757 155.011 246.802 155.715V160.355C245.864 159.587 244.786 159.032 243.57 158.691C242.376 158.328 241.01 158.147 239.474 158.147C238.045 158.147 236.754 158.445 235.602 159.043C234.472 159.619 233.576 160.451 232.914 161.539C232.253 162.627 231.922 163.896 231.922 165.347C231.922 166.819 232.221 168.109 232.818 169.219C233.437 170.307 234.301 171.149 235.41 171.747C236.52 172.344 237.8 172.643 239.25 172.643C240.573 172.643 241.725 172.408 242.706 171.939V167.619H239.09V164.035H247.41V174.819C245.298 176.269 242.514 176.995 239.058 176.995ZM250.134 161.155H254.806V163.363C255.424 162.616 256.288 162.051 257.398 161.667C258.507 161.261 259.766 161.059 261.174 161.059V164.739C259.702 164.739 258.4 164.963 257.27 165.411C256.16 165.859 255.392 166.541 254.966 167.459V176.515H250.134V161.155ZM271.367 176.995C269.511 176.995 267.879 176.664 266.471 176.003C265.084 175.32 264.007 174.371 263.239 173.155C262.492 171.917 262.119 170.477 262.119 168.835C262.119 167.235 262.492 165.816 263.239 164.579C264.007 163.341 265.084 162.381 266.471 161.699C267.879 161.016 269.511 160.675 271.367 160.675C273.201 160.675 274.812 161.016 276.199 161.699C277.607 162.381 278.684 163.341 279.431 164.579C280.199 165.816 280.583 167.235 280.583 168.835C280.583 170.477 280.199 171.917 279.431 173.155C278.684 174.371 277.617 175.32 276.231 176.003C274.844 176.664 273.223 176.995 271.367 176.995ZM271.367 173.219C272.668 173.219 273.703 172.824 274.471 172.035C275.239 171.224 275.623 170.157 275.623 168.835C275.623 167.469 275.239 166.403 274.471 165.635C273.724 164.845 272.689 164.451 271.367 164.451C270.044 164.451 268.999 164.845 268.231 165.635C267.463 166.403 267.079 167.469 267.079 168.835C267.079 170.157 267.463 171.224 268.231 172.035C269.02 172.824 270.065 173.219 271.367 173.219ZM289.402 176.995C287.311 176.995 285.743 176.429 284.698 175.299C283.653 174.147 283.13 172.621 283.13 170.723V161.155H287.962V170.211C287.962 172.216 288.89 173.219 290.746 173.219C291.557 173.219 292.314 173.027 293.018 172.643C293.722 172.259 294.309 171.683 294.778 170.915V161.155H299.61V176.515H294.938V174.659C294.255 175.448 293.423 176.035 292.442 176.419C291.482 176.803 290.469 176.995 289.402 176.995ZM302.977 161.155H307.649V162.851C309.207 161.4 311.127 160.675 313.409 160.675C315.009 160.675 316.417 161.016 317.633 161.699C318.871 162.36 319.831 163.309 320.513 164.547C321.196 165.763 321.537 167.181 321.537 168.803C321.537 170.403 321.196 171.821 320.513 173.059C319.831 174.296 318.871 175.267 317.633 175.971C316.417 176.653 315.009 176.995 313.409 176.995C312.321 176.995 311.287 176.835 310.305 176.515C309.324 176.195 308.492 175.736 307.809 175.139V183.523H302.977V161.155ZM312.193 173.219C313.495 173.219 314.551 172.813 315.361 172.003C316.193 171.192 316.609 170.125 316.609 168.803C316.609 167.48 316.193 166.424 315.361 165.635C314.551 164.845 313.495 164.451 312.193 164.451C311.191 164.451 310.295 164.717 309.505 165.251C308.716 165.784 308.151 166.488 307.809 167.363V170.275C308.129 171.171 308.684 171.885 309.473 172.419C310.284 172.952 311.191 173.219 312.193 173.219ZM340.79 158.211H334.262V154.147H352.182V158.211H345.654V176.515H340.79V158.211ZM356.165 158.787C355.418 158.787 354.789 158.541 354.277 158.051C353.765 157.56 353.509 156.941 353.509 156.195C353.509 155.469 353.765 154.861 354.277 154.371C354.789 153.859 355.418 153.603 356.165 153.603C356.911 153.603 357.541 153.859 358.053 154.371C358.565 154.861 358.821 155.469 358.821 156.195C358.821 156.941 358.565 157.56 358.053 158.051C357.541 158.541 356.911 158.787 356.165 158.787ZM353.733 161.155H358.597V176.515H353.733V161.155ZM368.566 176.995C366.774 176.995 365.408 176.504 364.47 175.523C363.552 174.52 363.094 173.133 363.094 171.363V164.643H360.854V161.155H363.094V156.547H367.926V161.155H371.542V164.643H367.926V170.723C367.926 171.619 368.096 172.269 368.438 172.675C368.779 173.059 369.387 173.251 370.262 173.251C370.966 173.251 371.638 173.08 372.278 172.739V176.355C371.296 176.781 370.059 176.995 368.566 176.995ZM374.509 152.867H379.341V176.515H374.509V152.867ZM391.528 176.995C388.584 176.995 386.27 176.291 384.584 174.883C382.899 173.453 382.056 171.459 382.056 168.899C382.056 166.36 382.803 164.355 384.296 162.883C385.811 161.411 387.966 160.675 390.76 160.675C392.595 160.675 394.152 161.016 395.432 161.699C396.712 162.381 397.683 163.331 398.344 164.547C399.006 165.741 399.336 167.096 399.336 168.611V170.563H386.664C387.006 172.525 388.84 173.507 392.168 173.507C393.15 173.507 394.163 173.421 395.208 173.251C396.254 173.08 397.16 172.845 397.928 172.547V175.939C397.182 176.259 396.222 176.515 395.048 176.707C393.875 176.899 392.702 176.995 391.528 176.995ZM394.76 167.427C394.696 166.403 394.312 165.613 393.608 165.059C392.904 164.483 391.934 164.195 390.696 164.195C389.48 164.195 388.52 164.483 387.816 165.059C387.112 165.635 386.728 166.424 386.664 167.427H394.76Z" fill="#C3F53A"/>
<path d="M239.058 314.741C236.669 314.741 234.557 314.271 232.722 313.333C230.888 312.373 229.469 311.018 228.466 309.269C227.464 307.519 226.962 305.461 226.962 303.093C226.962 300.725 227.464 298.666 228.466 296.917C229.469 295.146 230.888 293.791 232.722 292.853C234.557 291.893 236.669 291.413 239.058 291.413C242.152 291.413 244.733 292.117 246.802 293.525V298.133C245.864 297.343 244.786 296.778 243.57 296.437C242.376 296.074 241.01 295.893 239.474 295.893C237.149 295.893 235.304 296.543 233.938 297.845C232.594 299.125 231.922 300.874 231.922 303.093C231.922 305.333 232.605 307.103 233.97 308.405C235.336 309.685 237.17 310.325 239.474 310.325C241.053 310.325 242.45 310.143 243.666 309.781C244.882 309.397 246.013 308.789 247.058 307.957V312.565C245.096 314.015 242.429 314.741 239.058 314.741ZM257.585 314.741C255.729 314.741 254.097 314.41 252.689 313.749C251.303 313.066 250.225 312.117 249.457 310.901C248.711 309.663 248.337 308.223 248.337 306.581C248.337 304.981 248.711 303.562 249.457 302.325C250.225 301.087 251.303 300.127 252.689 299.445C254.097 298.762 255.729 298.421 257.585 298.421C259.42 298.421 261.031 298.762 262.417 299.445C263.825 300.127 264.903 301.087 265.649 302.325C266.417 303.562 266.801 304.981 266.801 306.581C266.801 308.223 266.417 309.663 265.649 310.901C264.903 312.117 263.836 313.066 262.449 313.749C261.063 314.41 259.441 314.741 257.585 314.741ZM257.585 310.965C258.887 310.965 259.921 310.57 260.689 309.781C261.457 308.97 261.841 307.903 261.841 306.581C261.841 305.215 261.457 304.149 260.689 303.381C259.943 302.591 258.908 302.197 257.585 302.197C256.263 302.197 255.217 302.591 254.449 303.381C253.681 304.149 253.297 305.215 253.297 306.581C253.297 307.903 253.681 308.97 254.449 309.781C255.239 310.57 256.284 310.965 257.585 310.965ZM269.509 298.901H274.021V300.757C274.682 300.01 275.45 299.434 276.325 299.029C277.199 298.623 278.106 298.421 279.045 298.421C280.218 298.421 281.157 298.613 281.861 298.997C282.565 299.359 283.119 299.903 283.525 300.629C284.186 299.925 284.986 299.381 285.925 298.997C286.885 298.613 287.834 298.421 288.773 298.421C290.735 298.421 292.133 298.922 292.965 299.925C293.818 300.927 294.245 302.378 294.245 304.277V314.261H289.637V304.949C289.637 303.967 289.445 303.263 289.061 302.837C288.677 302.41 288.058 302.197 287.205 302.197C286.01 302.197 285.05 302.666 284.325 303.605C284.367 304.287 284.389 304.842 284.389 305.269V314.261H279.749V304.789C279.749 303.85 279.578 303.189 279.237 302.805C278.917 302.399 278.351 302.197 277.541 302.197C276.282 302.197 275.162 302.911 274.181 304.341V314.261H269.509V298.901ZM297.446 298.901H302.118V300.597C303.676 299.146 305.596 298.421 307.878 298.421C309.478 298.421 310.886 298.762 312.102 299.445C313.34 300.106 314.3 301.055 314.982 302.293C315.665 303.509 316.006 304.927 316.006 306.549C316.006 308.149 315.665 309.567 314.982 310.805C314.3 312.042 313.34 313.013 312.102 313.717C310.886 314.399 309.478 314.741 307.878 314.741C306.79 314.741 305.756 314.581 304.774 314.261C303.793 313.941 302.961 313.482 302.278 312.885V321.269H297.446V298.901ZM306.662 310.965C307.964 310.965 309.02 310.559 309.83 309.749C310.662 308.938 311.078 307.871 311.078 306.549C311.078 305.226 310.662 304.17 309.83 303.381C309.02 302.591 307.964 302.197 306.662 302.197C305.66 302.197 304.764 302.463 303.974 302.997C303.185 303.53 302.62 304.234 302.278 305.109V308.021C302.598 308.917 303.153 309.631 303.942 310.165C304.753 310.698 305.66 310.965 306.662 310.965ZM318.727 290.613H323.559V314.261H318.727V290.613ZM335.747 314.741C332.803 314.741 330.488 314.037 328.803 312.629C327.118 311.199 326.275 309.205 326.275 306.645C326.275 304.106 327.022 302.101 328.515 300.629C330.03 299.157 332.184 298.421 334.979 298.421C336.814 298.421 338.371 298.762 339.651 299.445C340.931 300.127 341.902 301.077 342.563 302.293C343.224 303.487 343.555 304.842 343.555 306.357V308.309H330.883C331.224 310.271 333.059 311.253 336.387 311.253C337.368 311.253 338.382 311.167 339.427 310.997C340.472 310.826 341.379 310.591 342.147 310.293V313.685C341.4 314.005 340.44 314.261 339.267 314.453C338.094 314.645 336.92 314.741 335.747 314.741ZM338.979 305.173C338.915 304.149 338.531 303.359 337.827 302.805C337.123 302.229 336.152 301.941 334.915 301.941C333.699 301.941 332.739 302.229 332.035 302.805C331.331 303.381 330.947 304.17 330.883 305.173H338.979ZM352.659 314.741C350.867 314.741 349.502 314.25 348.563 313.269C347.646 312.266 347.187 310.879 347.187 309.109V302.389H344.947V298.901H347.187V294.293H352.019V298.901H355.635V302.389H352.019V308.469C352.019 309.365 352.19 310.015 352.531 310.421C352.873 310.805 353.481 310.997 354.355 310.997C355.059 310.997 355.731 310.826 356.371 310.485V314.101C355.39 314.527 354.153 314.741 352.659 314.741ZM367.434 314.741C364.49 314.741 362.176 314.037 360.49 312.629C358.805 311.199 357.962 309.205 357.962 306.645C357.962 304.106 358.709 302.101 360.202 300.629C361.717 299.157 363.872 298.421 366.666 298.421C368.501 298.421 370.058 298.762 371.338 299.445C372.618 300.127 373.589 301.077 374.25 302.293C374.912 303.487 375.242 304.842 375.242 306.357V308.309H362.57C362.912 310.271 364.746 311.253 368.074 311.253C369.056 311.253 370.069 311.167 371.114 310.997C372.16 310.826 373.066 310.591 373.834 310.293V313.685C373.088 314.005 372.128 314.261 370.954 314.453C369.781 314.645 368.608 314.741 367.434 314.741ZM370.666 305.173C370.602 304.149 370.218 303.359 369.514 302.805C368.81 302.229 367.84 301.941 366.602 301.941C365.386 301.941 364.426 302.229 363.722 302.805C363.018 303.381 362.634 304.17 362.57 305.173H370.666Z" fill="#DBF7F5"/>
<path d="M227.602 429.351H237.01C239.549 429.351 241.576 430.023 243.09 431.367C244.605 432.689 245.362 434.535 245.362 436.903C245.362 439.335 244.605 441.201 243.09 442.503C241.597 443.804 239.57 444.455 237.01 444.455H232.466V451.719H227.602V429.351ZM236.306 440.391C239.058 440.391 240.434 439.228 240.434 436.903C240.434 435.601 240.061 434.695 239.314 434.183C238.589 433.671 237.586 433.415 236.306 433.415H232.466V440.391H236.306ZM247.602 428.071H252.434V451.719H247.602V428.071ZM261.518 452.199C259.641 452.199 258.105 451.729 256.91 450.791C255.737 449.831 255.15 448.529 255.15 446.887C255.15 445.18 255.715 443.857 256.846 442.919C257.977 441.959 259.577 441.479 261.646 441.479C262.563 441.479 263.438 441.575 264.27 441.767C265.102 441.959 265.838 442.225 266.478 442.567V442.183C266.478 441.223 266.137 440.519 265.454 440.071C264.771 439.623 263.726 439.399 262.318 439.399C260.441 439.399 258.713 439.751 257.134 440.455V436.935C257.817 436.636 258.702 436.391 259.79 436.199C260.878 435.985 261.966 435.879 263.054 435.879C265.827 435.879 267.897 436.455 269.262 437.607C270.627 438.737 271.31 440.327 271.31 442.375V451.719H266.766V450.311C265.465 451.569 263.715 452.199 261.518 452.199ZM262.83 448.999C263.619 448.999 264.334 448.849 264.974 448.551C265.614 448.252 266.115 447.836 266.478 447.303V445.767C265.39 445.041 264.195 444.679 262.894 444.679C261.998 444.679 261.305 444.871 260.814 445.255C260.345 445.617 260.11 446.161 260.11 446.887C260.11 447.569 260.345 448.092 260.814 448.455C261.283 448.817 261.955 448.999 262.83 448.999ZM274.509 436.359H279.181V438.247C279.885 437.457 280.717 436.871 281.677 436.487C282.658 436.081 283.682 435.879 284.749 435.879C286.839 435.879 288.397 436.444 289.421 437.575C290.466 438.684 290.989 440.188 290.989 442.087V451.719H286.157V442.631C286.157 440.647 285.239 439.655 283.405 439.655C282.594 439.655 281.837 439.857 281.133 440.263C280.429 440.647 279.831 441.223 279.341 441.991V451.719H274.509V436.359ZM294.196 436.359H298.868V438.247C299.572 437.457 300.404 436.871 301.364 436.487C302.346 436.081 303.37 435.879 304.436 435.879C306.527 435.879 308.084 436.444 309.108 437.575C310.154 438.684 310.676 440.188 310.676 442.087V451.719H305.844V442.631C305.844 440.647 304.927 439.655 303.092 439.655C302.282 439.655 301.524 439.857 300.82 440.263C300.116 440.647 299.519 441.223 299.028 441.991V451.719H294.196V436.359ZM322.716 452.199C319.772 452.199 317.457 451.495 315.772 450.087C314.086 448.657 313.244 446.663 313.244 444.103C313.244 441.564 313.99 439.559 315.484 438.087C316.998 436.615 319.153 435.879 321.948 435.879C323.782 435.879 325.34 436.22 326.62 436.903C327.9 437.585 328.87 438.535 329.532 439.751C330.193 440.945 330.524 442.3 330.524 443.815V445.767H317.852C318.193 447.729 320.028 448.711 323.356 448.711C324.337 448.711 325.35 448.625 326.396 448.455C327.441 448.284 328.348 448.049 329.116 447.751V451.143C328.369 451.463 327.409 451.719 326.236 451.911C325.062 452.103 323.889 452.199 322.716 452.199ZM325.948 442.631C325.884 441.607 325.5 440.817 324.796 440.263C324.092 439.687 323.121 439.399 321.884 439.399C320.668 439.399 319.708 439.687 319.004 440.263C318.3 440.839 317.916 441.628 317.852 442.631H325.948ZM340.684 452.199C339.106 452.199 337.698 451.868 336.46 451.207C335.244 450.524 334.284 449.575 333.58 448.359C332.898 447.121 332.556 445.692 332.556 444.071C332.556 442.471 332.898 441.052 333.58 439.815C334.263 438.577 335.223 437.617 336.46 436.935C337.698 436.231 339.106 435.879 340.684 435.879C341.836 435.879 342.892 436.039 343.852 436.359C344.812 436.679 345.623 437.137 346.284 437.735V428.071H351.116V451.719H346.444V450.055C345.655 450.801 344.791 451.345 343.852 451.687C342.935 452.028 341.879 452.199 340.684 452.199ZM341.932 448.455C342.935 448.455 343.82 448.188 344.588 447.655C345.378 447.121 345.943 446.407 346.284 445.511V442.599C345.986 441.724 345.431 441.02 344.62 440.487C343.831 439.932 342.935 439.655 341.932 439.655C340.631 439.655 339.564 440.06 338.732 440.871C337.922 441.681 337.516 442.748 337.516 444.071C337.516 445.393 337.922 446.46 338.732 447.271C339.564 448.06 340.631 448.455 341.932 448.455Z" fill="#966ACC"/>
<path d="M148.132 194.795V274.911" stroke="#12C7BA" stroke-width="4"/>
<rect x="121.081" y="138.515" width="53.9996" height="53.9996" rx="26.9998" stroke="#C3F53A" stroke-width="6"/>
<circle cx="148.079" cy="165.514" r="16.4083" fill="#C3F53A"/>
<defs>
<filter id="filter0_d_16_66484" x="0.0195312" y="0.757568" width="518.98" height="604.718" filterUnits="userSpaceOnUse" color-interpolation-filters="sRGB">
<feFlood flood-opacity="0" result="BackgroundImageFix"/>
<feColorMatrix in="SourceAlpha" type="matrix" values="0 0 0 0 0 0 0 0 0 0 0 0 0 0 0 0 0 0 127 0" result="hardAlpha"/>
<feOffset/>
<feGaussianBlur stdDeviation="30"/>
<feComposite in2="hardAlpha" operator="out"/>
<feColorMatrix type="matrix" values="0 0 0 0 0.0705882 0 0 0 0 0.780392 0 0 0 0 0.729412 0 0 0 0.3 0"/>
<feBlend mode="normal" in2="BackgroundImageFix" result="effect1_dropShadow_16_66484"/>
<feBlend mode="normal" in="SourceGraphic" in2="effect1_dropShadow_16_66484" result="shape"/>
</filter>
</defs>
</svg>
