<svg width="556" height="642" fill="none" xmlns="http://www.w3.org/2000/svg"><g filter="url(#prefix__filter0_d_16_66484)"><rect x="78.375" y="78.632" width="398.981" height="484.718" rx="36" fill="#1F1C47" fill-opacity=".65" shape-rendering="crispEdges"/></g><path d="M166.487 348.477v80.116" stroke="#966ACC" stroke-width="4"/><rect x="138.487" y="293.055" width="56" height="56" rx="10" stroke="#12C7BA" stroke-width="4"/><rect x="138.487" y="430.593" width="56" height="56" rx="10" stroke="#966ACC" stroke-width="4"/><path d="M165.478 336.442c.582.487 1.368.55 1.918.013l3.88-3.883c.54-.547.515-1.378-.012-1.918l-1.857-1.849 2.751-2.74c.533-.528.517-1.371-.01-1.919l-2.511-2.52c3.408-1.688 5.321-4.514 5.321-7.847 0-4.703-3.808-8.502-8.517-8.502-4.744 0-8.527 3.776-8.527 8.502 0 3.385 1.93 6.401 4.988 7.781v11.794c0 .444.139.96.526 1.303l2.05 1.785zm.963-2.218l-1.369-1.357v-12.945a6.25 6.25 0 01-4.922-6.143c0-3.459 2.807-6.253 6.291-6.253a6.247 6.247 0 016.266 6.253c0 2.974-2.063 5.518-5.198 6.219v2.706l2.403 2.42-2.572 2.536v2.266l1.695 1.668-2.594 2.63zm0-20.37c1.232 0 2.231-1 2.231-2.239a2.23 2.23 0 00-2.231-2.231 2.218 2.218 0 00-2.241 2.231c0 1.239.999 2.239 2.241 2.239z" fill="#DBF7F5"/><path d="M165.478 474.108c.582.487 1.368.55 1.918.012l3.88-3.882c.54-.548.515-1.379-.012-1.918l-1.857-1.849 2.751-2.741c.533-.527.517-1.37-.01-1.918l-2.511-2.521c3.408-1.688 5.321-4.513 5.321-7.846 0-4.704-3.808-8.502-8.517-8.502-4.744 0-8.527 3.775-8.527 8.502 0 3.385 1.93 6.4 4.988 7.78v11.795c0 .444.139.96.526 1.302l2.05 1.786zm.963-2.218l-1.369-1.358v-12.945a6.248 6.248 0 01-4.922-6.142c0-3.459 2.807-6.253 6.291-6.253a6.247 6.247 0 016.266 6.253c0 2.973-2.063 5.517-5.198 6.219v2.705l2.403 2.421-2.572 2.535v2.267l1.695 1.668-2.594 2.63zm0-20.37c1.232 0 2.231-1 2.231-2.24a2.23 2.23 0 00-2.231-2.231 2.218 2.218 0 00-2.241 2.231c0 1.24.999 2.24 2.241 2.24z" fill="#966ACC"/><path d="M257.414 194.869c-2.389 0-4.501-.47-6.336-1.408-1.835-.96-3.253-2.315-4.256-4.064-1.003-1.75-1.504-3.808-1.504-6.176 0-2.368.501-4.427 1.504-6.176 1.003-1.771 2.421-3.126 4.256-4.064 1.835-.96 3.947-1.44 6.336-1.44 1.621 0 3.051.17 4.288.512 1.259.32 2.411.832 3.456 1.536v4.64a8.792 8.792 0 00-3.232-1.664c-1.195-.363-2.56-.544-4.096-.544-1.429 0-2.72.298-3.872.896a6.584 6.584 0 00-2.688 2.496c-.661 1.088-.992 2.357-.992 3.808 0 1.472.299 2.762.896 3.872a6.436 6.436 0 002.592 2.528c1.109.597 2.389.896 3.84.896 1.323 0 2.475-.235 3.456-.704v-4.32h-3.616v-3.584h8.32v10.784c-2.112 1.45-4.896 2.176-8.352 2.176zm11.075-15.84h4.672v2.208c.619-.747 1.483-1.312 2.592-1.696 1.11-.406 2.368-.608 3.776-.608v3.68c-1.472 0-2.773.224-3.904.672-1.109.448-1.877 1.13-2.304 2.048v9.056h-4.832v-15.36zm21.233 15.84c-1.856 0-3.488-.331-4.896-.992-1.386-.683-2.464-1.632-3.232-2.848-.746-1.238-1.12-2.678-1.12-4.32 0-1.6.374-3.019 1.12-4.256.768-1.238 1.846-2.198 3.232-2.88 1.408-.683 3.04-1.024 4.896-1.024 1.835 0 3.446.341 4.832 1.024 1.408.682 2.486 1.642 3.232 2.88.768 1.237 1.152 2.656 1.152 4.256 0 1.642-.384 3.082-1.152 4.32-.746 1.216-1.813 2.165-3.2 2.848-1.386.661-3.008.992-4.864.992zm0-3.776c1.302 0 2.336-.395 3.104-1.184.768-.811 1.152-1.878 1.152-3.2 0-1.366-.384-2.432-1.152-3.2-.746-.79-1.781-1.184-3.104-1.184-1.322 0-2.368.394-3.136 1.184-.768.768-1.152 1.834-1.152 3.2 0 1.322.384 2.389 1.152 3.2.79.789 1.835 1.184 3.136 1.184zm18.035 3.776c-2.09 0-3.658-.566-4.704-1.696-1.045-1.152-1.568-2.678-1.568-4.576v-9.568h4.832v9.056c0 2.005.928 3.008 2.784 3.008a4.67 4.67 0 002.272-.576c.704-.384 1.291-.96 1.76-1.728v-9.76h4.832v15.36h-4.672v-1.856a6.265 6.265 0 01-2.496 1.76 8.108 8.108 0 01-3.04.576zm13.576-15.84h4.672v1.696c1.557-1.451 3.477-2.176 5.76-2.176 1.6 0 3.008.341 4.224 1.024a6.987 6.987 0 012.88 2.848c.683 1.216 1.024 2.634 1.024 4.256 0 1.6-.341 3.018-1.024 4.256a7.418 7.418 0 01-2.88 2.912c-1.216.682-2.624 1.024-4.224 1.024a9.948 9.948 0 01-3.104-.48c-.981-.32-1.813-.779-2.496-1.376v8.384h-4.832v-22.368zm9.216 12.064c1.301 0 2.357-.406 3.168-1.216.832-.811 1.248-1.878 1.248-3.2 0-1.323-.416-2.379-1.248-3.168-.811-.79-1.867-1.184-3.168-1.184-1.003 0-1.899.266-2.688.8a4.446 4.446 0 00-1.696 2.112v2.912c.32.896.875 1.61 1.664 2.144.811.533 1.717.8 2.72.8zm28.597-15.008h-6.528v-4.064h17.92v4.064h-6.528v18.304h-4.864v-18.304zm15.374.576c-.746 0-1.376-.246-1.888-.736-.512-.491-.768-1.11-.768-1.856 0-.726.256-1.334.768-1.824.512-.512 1.142-.768 1.888-.768.747 0 1.376.256 1.888.768.512.49.768 1.098.768 1.824 0 .746-.256 1.365-.768 1.856-.512.49-1.141.736-1.888.736zm-2.432 2.368h4.864v15.36h-4.864v-15.36zm14.833 15.84c-1.792 0-3.157-.491-4.096-1.472-.917-1.003-1.376-2.39-1.376-4.16v-6.72h-2.24v-3.488h2.24v-4.608h4.832v4.608h3.616v3.488h-3.616v6.08c0 .896.171 1.546.512 1.952.342.384.95.576 1.824.576a4.23 4.23 0 002.016-.512v3.616c-.981.426-2.218.64-3.712.64zm5.943-24.128h4.832v23.648h-4.832v-23.648zm17.02 24.128c-2.944 0-5.259-.704-6.944-2.112-1.686-1.43-2.528-3.424-2.528-5.984 0-2.539.746-4.544 2.24-6.016 1.514-1.472 3.669-2.208 6.464-2.208 1.834 0 3.392.341 4.672 1.024 1.28.682 2.25 1.632 2.912 2.848.661 1.194.992 2.549.992 4.064v1.952H405.02c.341 1.962 2.176 2.944 5.504 2.944.981 0 1.994-.086 3.04-.256 1.045-.171 1.952-.406 2.72-.704v3.392c-.747.32-1.707.576-2.88.768a21.772 21.772 0 01-3.52.288zm3.232-9.568c-.064-1.024-.448-1.814-1.152-2.368-.704-.576-1.675-.864-2.912-.864-1.216 0-2.176.288-2.88.864-.704.576-1.088 1.365-1.152 2.368h8.096z" fill="#C3F53A"/><path d="M257.414 332.615c-2.389 0-4.501-.469-6.336-1.408-1.835-.96-3.253-2.314-4.256-4.064-1.003-1.749-1.504-3.808-1.504-6.176 0-2.368.501-4.426 1.504-6.176 1.003-1.77 2.421-3.125 4.256-4.064 1.835-.96 3.947-1.44 6.336-1.44 3.093 0 5.675.704 7.744 2.112v4.608a8.564 8.564 0 00-3.232-1.696c-1.195-.362-2.56-.544-4.096-.544-2.325 0-4.171.651-5.536 1.952-1.344 1.28-2.016 3.03-2.016 5.248 0 2.24.683 4.011 2.048 5.312 1.365 1.28 3.2 1.92 5.504 1.92 1.579 0 2.976-.181 4.192-.544a10.484 10.484 0 003.392-1.824v4.608c-1.963 1.451-4.629 2.176-8 2.176zm18.527 0c-1.856 0-3.488-.33-4.896-.992-1.387-.682-2.464-1.632-3.232-2.848-.747-1.237-1.12-2.677-1.12-4.32 0-1.6.373-3.018 1.12-4.256.768-1.237 1.845-2.197 3.232-2.88 1.408-.682 3.04-1.024 4.896-1.024 1.835 0 3.445.342 4.832 1.024 1.408.683 2.485 1.643 3.232 2.88.768 1.238 1.152 2.656 1.152 4.256 0 1.643-.384 3.083-1.152 4.32-.747 1.216-1.813 2.166-3.2 2.848-1.387.662-3.008.992-4.864.992zm0-3.776c1.301 0 2.336-.394 3.104-1.184.768-.81 1.152-1.877 1.152-3.2 0-1.365-.384-2.432-1.152-3.2-.747-.789-1.781-1.184-3.104-1.184-1.323 0-2.368.395-3.136 1.184-.768.768-1.152 1.835-1.152 3.2 0 1.323.384 2.39 1.152 3.2.789.79 1.835 1.184 3.136 1.184zm11.923-12.064h4.512v1.856a7 7 0 012.304-1.728 6.407 6.407 0 012.72-.608c1.174 0 2.112.192 2.816.576a3.958 3.958 0 011.664 1.632 6.766 6.766 0 012.4-1.632c.96-.384 1.91-.576 2.848-.576 1.963 0 3.36.502 4.192 1.504.854 1.003 1.28 2.454 1.28 4.352v9.984h-4.608v-9.312c0-.981-.192-1.685-.576-2.112-.384-.426-1.002-.64-1.856-.64-1.194 0-2.154.47-2.88 1.408.043.683.064 1.238.064 1.664v8.992h-4.64v-9.472c0-.938-.17-1.6-.512-1.984-.32-.405-.885-.608-1.696-.608-1.258 0-2.378.715-3.36 2.144v9.92h-4.672v-15.36zm27.938 0h4.672v1.696c1.557-1.45 3.477-2.176 5.76-2.176 1.6 0 3.008.342 4.224 1.024a7 7 0 012.88 2.848c.682 1.216 1.024 2.635 1.024 4.256 0 1.6-.342 3.019-1.024 4.256a7.411 7.411 0 01-2.88 2.912c-1.216.683-2.624 1.024-4.224 1.024a9.948 9.948 0 01-3.104-.48c-.982-.32-1.814-.778-2.496-1.376v8.384h-4.832v-22.368zm9.216 12.064c1.301 0 2.357-.405 3.168-1.216.832-.81 1.248-1.877 1.248-3.2 0-1.322-.416-2.378-1.248-3.168-.811-.789-1.867-1.184-3.168-1.184-1.003 0-1.899.267-2.688.8a4.45 4.45 0 00-1.696 2.112v2.912c.32.896.874 1.611 1.664 2.144.81.534 1.717.8 2.72.8zm12.065-20.352h4.832v23.648h-4.832v-23.648zm17.019 24.128c-2.944 0-5.258-.704-6.944-2.112-1.685-1.429-2.528-3.424-2.528-5.984 0-2.538.747-4.544 2.24-6.016 1.515-1.472 3.67-2.208 6.464-2.208 1.835 0 3.392.342 4.672 1.024 1.28.683 2.251 1.632 2.912 2.848.662 1.195.992 2.55.992 4.064v1.952h-12.672c.342 1.963 2.176 2.944 5.504 2.944.982 0 1.995-.085 3.04-.256 1.046-.17 1.952-.405 2.72-.704v3.392c-.746.32-1.706.576-2.88.768a21.754 21.754 0 01-3.52.288zm3.232-9.568c-.064-1.024-.448-1.813-1.152-2.368-.704-.576-1.674-.864-2.912-.864-1.216 0-2.176.288-2.88.864-.704.576-1.088 1.366-1.152 2.368h8.096zm13.681 9.568c-1.792 0-3.157-.49-4.096-1.472-.917-1.002-1.376-2.389-1.376-4.16v-6.72h-2.24v-3.488h2.24v-4.608h4.832v4.608h3.616v3.488h-3.616v6.08c0 .896.171 1.547.512 1.952.341.384.949.576 1.824.576.704 0 1.376-.17 2.016-.512v3.616c-.981.427-2.219.64-3.712.64zm14.775 0c-2.944 0-5.259-.704-6.944-2.112-1.685-1.429-2.528-3.424-2.528-5.984 0-2.538.747-4.544 2.24-6.016 1.515-1.472 3.669-2.208 6.464-2.208 1.835 0 3.392.342 4.672 1.024 1.28.683 2.251 1.632 2.912 2.848.661 1.195.992 2.55.992 4.064v1.952h-12.672c.341 1.963 2.176 2.944 5.504 2.944.981 0 1.995-.085 3.04-.256 1.045-.17 1.952-.405 2.72-.704v3.392c-.747.32-1.707.576-2.88.768a21.763 21.763 0 01-3.52.288zm3.232-9.568c-.064-1.024-.448-1.813-1.152-2.368-.704-.576-1.675-.864-2.912-.864-1.216 0-2.176.288-2.88.864-.704.576-1.088 1.366-1.152 2.368h8.096z" fill="#DBF7F5"/><path d="M245.958 447.225h9.408c2.539 0 4.565.672 6.08 2.016 1.515 1.323 2.272 3.168 2.272 5.536 0 2.432-.757 4.299-2.272 5.6-1.493 1.302-3.52 1.952-6.08 1.952h-4.544v7.264h-4.864v-22.368zm8.704 11.04c2.752 0 4.128-1.162 4.128-3.488 0-1.301-.373-2.208-1.12-2.72-.725-.512-1.728-.768-3.008-.768h-3.84v6.976h3.84zm11.296-12.32h4.832v23.648h-4.832v-23.648zm13.915 24.128c-1.877 0-3.413-.469-4.608-1.408-1.173-.96-1.76-2.261-1.76-3.904 0-1.706.566-3.029 1.696-3.968 1.131-.96 2.731-1.44 4.8-1.44.918 0 1.792.096 2.624.288a8.97 8.97 0 012.208.8v-.384c0-.96-.341-1.664-1.024-2.112-.682-.448-1.728-.672-3.136-.672-1.877 0-3.605.352-5.184 1.056v-3.52c.683-.298 1.568-.544 2.656-.736a16.953 16.953 0 013.264-.32c2.774 0 4.843.576 6.208 1.728 1.366 1.131 2.048 2.72 2.048 4.768v9.344h-4.544v-1.408c-1.301 1.259-3.05 1.888-5.248 1.888zm1.312-3.2c.79 0 1.504-.149 2.144-.448.64-.298 1.142-.714 1.504-1.248v-1.536a6.328 6.328 0 00-3.584-1.088c-.896 0-1.589.192-2.08.576-.469.363-.704.907-.704 1.632 0 .683.235 1.206.704 1.568.47.363 1.142.544 2.016.544zm11.679-12.64h4.672v1.888a6.587 6.587 0 012.496-1.76 7.981 7.981 0 013.072-.608c2.091 0 3.648.566 4.672 1.696 1.046 1.11 1.568 2.614 1.568 4.512v9.632h-4.832v-9.088c0-1.984-.917-2.976-2.752-2.976-.81 0-1.568.203-2.272.608-.704.384-1.301.96-1.792 1.728v9.728h-4.832v-15.36zm19.688 0h4.672v1.888a6.587 6.587 0 012.496-1.76 7.974 7.974 0 013.072-.608c2.09 0 3.648.566 4.672 1.696 1.045 1.11 1.568 2.614 1.568 4.512v9.632H324.2v-9.088c0-1.984-.918-2.976-2.752-2.976a4.48 4.48 0 00-2.272.608c-.704.384-1.302.96-1.792 1.728v9.728h-4.832v-15.36zm28.519 15.84c-2.944 0-5.258-.704-6.944-2.112-1.685-1.429-2.528-3.424-2.528-5.984 0-2.538.747-4.544 2.24-6.016 1.515-1.472 3.67-2.208 6.464-2.208 1.835 0 3.392.342 4.672 1.024 1.28.683 2.251 1.632 2.912 2.848.662 1.195.992 2.55.992 4.064v1.952h-12.672c.342 1.963 2.176 2.944 5.504 2.944.982 0 1.995-.085 3.04-.256 1.046-.17 1.952-.405 2.72-.704v3.392c-.746.32-1.706.576-2.88.768a21.754 21.754 0 01-3.52.288zm3.232-9.568c-.064-1.024-.448-1.813-1.152-2.368-.704-.576-1.674-.864-2.912-.864-1.216 0-2.176.288-2.88.864-.704.576-1.088 1.366-1.152 2.368h8.096zm14.737 9.568c-1.579 0-2.987-.33-4.224-.992a7.531 7.531 0 01-2.88-2.848c-.683-1.237-1.024-2.666-1.024-4.288 0-1.6.341-3.018 1.024-4.256a7.192 7.192 0 012.88-2.88c1.237-.704 2.645-1.056 4.224-1.056 1.152 0 2.208.16 3.168.48.96.32 1.77.779 2.432 1.376v-9.664h4.832v23.648H364.8v-1.664c-.79.747-1.654 1.291-2.592 1.632-.918.342-1.974.512-3.168.512zm1.248-3.744c1.002 0 1.888-.266 2.656-.8a4.434 4.434 0 001.696-2.144v-2.912c-.299-.874-.854-1.578-1.664-2.112-.79-.554-1.686-.832-2.688-.832-1.302 0-2.368.406-3.2 1.216-.811.811-1.216 1.878-1.216 3.2 0 1.323.405 2.39 1.216 3.2.832.79 1.898 1.184 3.2 1.184z" fill="#966ACC"/><path d="M166.487 212.67v80.116" stroke="#12C7BA" stroke-width="4"/><rect x="139.437" y="156.389" width="54" height="54" rx="27" stroke="#C3F53A" stroke-width="6"/><circle cx="166.435" cy="183.389" r="16.408" fill="#C3F53A"/><defs><filter id="prefix__filter0_d_16_66484" x=".375" y=".632" width="554.98" height="640.718" filterUnits="userSpaceOnUse" color-interpolation-filters="sRGB"><feFlood flood-opacity="0" result="BackgroundImageFix"/><feColorMatrix in="SourceAlpha" values="0 0 0 0 0 0 0 0 0 0 0 0 0 0 0 0 0 0 127 0" result="hardAlpha"/><feOffset/><feGaussianBlur stdDeviation="39"/><feComposite in2="hardAlpha" operator="out"/><feColorMatrix values="0 0 0 0 0 0 0 0 0 0 0 0 0 0 0 0 0 0 0.35 0"/><feBlend in2="BackgroundImageFix" result="effect1_dropShadow_16_66484"/><feBlend in="SourceGraphic" in2="effect1_dropShadow_16_66484" result="shape"/></filter></defs></svg>
