<svg xmlns="http://www.w3.org/2000/svg" id="svg265" version="1.1" viewBox="0 0 508 80"><defs id="defs259"><style id="style257">.cls-1{fill-rule:evenodd}</style></defs><path id="TRADE" d="M24.074 7.135v8.043H8.37V24.7H24.07v44.432h10.596v-44.43h36.035V15.18H34.666V7.135Zm130.924 3.224-32.783 58.774h12.033l4.459-8.268h33.188l10.662 18.602h12.037zm34.803 4.82v53.954h21.99c9.748 0 17.153-2.29 22.113-6.973 4.972-4.693 7.402-11.541 7.4-20.484 0-8.846-2.416-15.519-7.372-19.944-4.931-4.401-12.404-6.552-22.305-6.552zm56.287 0v53.954h37.453v-9.526h-26.863V41.9h22.482v-9.523h-22.482v-7.668h22.482v-9.53zm-171.924.003v53.95h10.59v-16.53h11.53l17.027 26.865h11.843l-17.539-27.092c11.627-1.248 17.639-7.468 17.639-18.596 0-12.388-7.53-18.597-22.158-18.597zm126.143 9.521h13.88c5.669 0 9.778 1.413 12.418 4.117 2.648 2.712 4.028 6.934 4.03 12.78 0 5.996-1.407 10.44-4.127 13.427-2.701 2.967-6.785 4.506-12.32 4.506h-13.881zm-115.553.006h19.502c7.294 0 10.74 3.025 10.74 9.149 0 6.166-3.441 9.208-10.707 9.218H84.754Zm70.582 5.024 11.457 21.537h-22.99z" class="cls-1"/><path id="TRADE_copy" d="M18.025 1.135V9.18H2.322v9.523h15.7v44.43h10.593v-44.43h36.04V9.18h-36.04V1.135ZM148.95 4.359l-32.783 58.774h12.033l4.461-8.268h33.188l10.666 18.602h12.037zm34.803 4.82v53.954h21.99c9.748 0 17.153-2.29 22.113-6.973 4.972-4.693 7.402-11.541 7.4-20.484 0-8.846-2.416-15.519-7.372-19.944-4.931-4.401-12.403-6.552-22.305-6.552zm56.287 0v53.954h37.453v-9.526h-26.861V35.9h22.48v-9.523h-22.48v-7.668h22.48v-9.53Zm-171.924.003v53.95h10.59v-16.53h11.527l17.032 26.865h11.843l-17.539-27.092c11.627-1.248 17.637-7.468 17.637-18.596 0-12.388-7.528-18.597-22.156-18.597zm126.143 9.521h13.883c5.668 0 9.775 1.413 12.416 4.117 2.647 2.711 4.026 6.934 4.027 12.78 0 5.996-1.406 10.44-4.125 13.427-2.7 2.968-6.782 4.507-12.318 4.506h-13.883zm-115.553.006h19.502c7.294 0 10.742 3.025 10.742 9.148 0 6.166-3.443 9.21-10.709 9.22H78.705Zm70.582 5.023 11.457 21.538h-22.988z" data-name="TRADE copy" style="fill:#e6e7d5;fill-rule:evenodd"/><path id="OGRE" d="M316.344 14.275a33.265 33.265 0 0 0-21.934 8.233 28.7 28.7 0 0 0-6.726 8.877 24.563 24.563 0 0 0 0 21.617 28.692 28.692 0 0 0 6.728 8.88 32.38 32.38 0 0 0 9.912 5.987 32.799 32.799 0 0 0 12.02 2.223c8.06.02 15.85-2.913 21.894-8.248a28.995 28.995 0 0 0 6.766-8.877 24.557 24.557 0 0 0 0-21.621 28.878 28.878 0 0 0-6.729-8.842 33.267 33.267 0 0 0-21.931-8.229zm65.056.02a33.402 33.402 0 0 0-21.972 8.21 28.397 28.397 0 0 0-6.77 8.88 24.559 24.559 0 0 0-.002 21.619 28.387 28.387 0 0 0 6.772 8.88 33.053 33.053 0 0 0 9.914 5.987 33.395 33.395 0 0 0 21.004.977c2.464-.707 4.824-1.717 7.084-2.924v13.543h10.673V43.262l-.564-.188h-23.006v9.524h12.895v.966a20 20 0 0 1-6.834 5.063 22.949 22.949 0 0 1-17.307.469 21.4 21.4 0 0 1-6.572-3.977 18.808 18.808 0 0 1-4.432-5.846 15.92 15.92 0 0 1-1.627-7.09 16.093 16.093 0 0 1 1.588-7.015 18.46 18.46 0 0 1 4.428-5.875 21.49 21.49 0 0 1 6.654-4.012 22.941 22.941 0 0 1 12.317-1.076l.004.002c1.8.375 3.553.94 5.232 1.688l.492.218 5.72-7.83-.651-.367a25.614 25.614 0 0 0-7.295-2.756 36.29 36.29 0 0 0-7.745-.865zm86.448.885v53.953H505.3v-9.526h-26.863v-17.71h22.482v-9.52h-22.483v-7.668h22.483v-9.53zm-56.123.002v53.947h10.59V52.602h11.53l17.026 26.865h11.844l-17.54-27.092c11.63-1.247 17.64-7.468 17.64-18.596 0-12.388-7.53-18.597-22.159-18.597zm-95.461 8.638a22.182 22.182 0 0 1 14.642 5.446 18.628 18.628 0 0 1 4.469 5.84c2.17 4.476 2.17 9.699.002 14.173a18.614 18.614 0 0 1-4.469 5.844 21.975 21.975 0 0 1-6.617 3.979 22.45 22.45 0 0 1-15.976 0 21.396 21.396 0 0 1-6.57-3.975 18.993 18.993 0 0 1-4.432-5.813 15.7 15.7 0 0 1-1.627-7.05 15.926 15.926 0 0 1 1.629-7.084 19.299 19.299 0 0 1 4.431-5.883 21.212 21.212 0 0 1 6.533-4.008 21.603 21.603 0 0 1 7.985-1.469zm106.05.885h19.502c7.294 0 10.74 3.027 10.74 9.15 0 6.167-3.442 9.21-10.706 9.22h-19.536z" class="cls-1"/><path id="OGRE_copy" d="M310.297 8.275a33.265 33.265 0 0 0-21.934 8.233 28.707 28.707 0 0 0-6.728 8.877 24.563 24.563 0 0 0 0 21.617 28.698 28.698 0 0 0 6.73 8.88 32.38 32.38 0 0 0 9.912 5.987 32.794 32.794 0 0 0 12.022 2.223 32.959 32.959 0 0 0 21.892-8.25 29 29 0 0 0 6.77-8.875 24.559 24.559 0 0 0-.006-21.621 28.878 28.878 0 0 0-6.729-8.842 33.263 33.263 0 0 0-21.93-8.229zm65.055.02a33.402 33.402 0 0 0-21.973 8.21 28.397 28.397 0 0 0-6.77 8.88 24.559 24.559 0 0 0-.002 21.619 28.387 28.387 0 0 0 6.772 8.88 33.053 33.053 0 0 0 9.914 5.987 33.395 33.395 0 0 0 21.004.977c2.464-.707 4.824-1.717 7.084-2.924v13.543h10.674V37.074c-7.757-.087-15.773 0-23.573 0v9.524h12.895v.966a20 20 0 0 1-6.834 5.063 22.954 22.954 0 0 1-17.309.469 21.391 21.391 0 0 1-6.57-3.977 18.808 18.808 0 0 1-4.432-5.846 15.92 15.92 0 0 1-1.627-7.09 16.095 16.095 0 0 1 1.588-7.015 18.46 18.46 0 0 1 4.428-5.867 21.475 21.475 0 0 1 6.652-4.01 22.953 22.953 0 0 1 12.319-1.078l.004.002c1.799.375 3.553.941 5.232 1.69l.492.218 5.721-7.83-.652-.37a25.61 25.61 0 0 0-7.293-2.763 36.288 36.288 0 0 0-7.744-.865Zm86.449.885v53.953h37.453v-9.526H472.39v-17.71h22.48v-9.52h-22.48v-7.668h22.48v-9.53Zm-56.123.002v53.947h10.588V46.602h11.53l17.028 26.865h11.844l-17.54-27.092c11.628-1.248 17.638-7.468 17.638-18.596 0-12.388-7.528-18.597-22.157-18.597zm-95.461 8.636a22.185 22.185 0 0 1 14.644 5.446 18.628 18.628 0 0 1 4.47 5.84 16.254 16.254 0 0 1-.003 14.175 18.613 18.613 0 0 1-4.469 5.844 21.966 21.966 0 0 1-6.615 3.979 22.45 22.45 0 0 1-15.976 0 21.396 21.396 0 0 1-6.57-3.975 18.998 18.998 0 0 1-4.434-5.813 15.7 15.7 0 0 1-1.627-7.05 15.926 15.926 0 0 1 1.629-7.084 19.305 19.305 0 0 1 4.433-5.885 21.212 21.212 0 0 1 6.533-4.008 21.603 21.603 0 0 1 7.985-1.469zm106.049.887h19.504c7.293 0 10.74 3.027 10.74 9.15 0 6.167-3.442 9.21-10.707 9.22h-19.537z" data-name="OGRE copy" style="fill:#d5d698;fill-rule:evenodd"/></svg>