<svg viewBox="0 0 226 49" fill="none" xmlns="http://www.w3.org/2000/svg"><path d="m133.39 11.545-9.785 8.54-9.785-8.54a4.299 4.299 0 0 0-2.83-1.068h-8.505l16.062 14.015-16.062 14.016h8.505a4.299 4.299 0 0 0 2.83-1.068l9.785-8.54 9.785 8.54a4.3 4.3 0 0 0 2.83 1.068h8.505l-16.062-14.016 16.062-14.015h-8.505a4.3 4.3 0 0 0-2.83 1.068ZM226 10.477h-6.473V30.06l-23.95-18.667a4.27 4.27 0 0 0-2.65-.915h-4.651v28.046h6.473V18.94l23.95 18.667a4.27 4.27 0 0 0 2.649.915H226V10.477ZM182.45 16.455v-5.978h-30.965c-3.388 3.95-5.194 8.845-5.194 14.015s1.806 10.081 5.194 14.016h30.965v-5.963h-27.759c-.768-1.464-1.325-3.096-1.611-5.064h27.142v-6.268h-27.097c.301-1.83.843-3.385 1.566-4.773h27.759v.015ZM101.522 24.508c0-8.449-5.119-14.015-5.119-14.015H67.335s-5.118 5.582-5.118 14.015c0 8.434 5.118 14.015 5.118 14.015h29.068s5.119-5.581 5.119-14.015Zm-30.83 8.007c-1.31-2.41-2.002-5.17-2.002-8.007 0-2.836.692-5.597 2.002-8.006h22.37c1.31 2.41 2.002 5.17 2.002 8.006 0 2.837-.693 5.597-2.002 8.007h-22.37ZM24.176 48.985c13.352 0 24.176-10.966 24.176-24.493C48.352 10.966 37.528 0 24.176 0 10.824 0 0 10.966 0 24.492 0 38.02 10.824 48.985 24.176 48.985Z" fill="#1E1D48"/><path d="m10.176 12.277 14 12.215 14.015-12.215H10.176ZM38.191 36.723l-14.015-12.23-14 12.23h28.015Z" fill="#12C7BA"/></svg>