<?xml version="1.0" encoding="UTF-8" standalone="no"?>
<svg
   xmlns:dc="http://purl.org/dc/elements/1.1/"
   xmlns:cc="http://creativecommons.org/ns#"
   xmlns:rdf="http://www.w3.org/1999/02/22-rdf-syntax-ns#"
   xmlns:svg="http://www.w3.org/2000/svg"
   xmlns="http://www.w3.org/2000/svg"
   xmlns:sodipodi="http://sodipodi.sourceforge.net/DTD/sodipodi-0.dtd"
   xmlns:inkscape="http://www.inkscape.org/namespaces/inkscape"
   viewBox="0 0 28 28"
   version="1.1"
   id="svg24"
   sodipodi:docname="kucoin-logo.svg"
   inkscape:version="1.0.1 (0767f8302a, 2020-10-17)">
  <metadata
     id="metadata30">
    <rdf:RDF>
      <cc:Work
         rdf:about="">
        <dc:format>image/svg+xml</dc:format>
        <dc:type
           rdf:resource="http://purl.org/dc/dcmitype/StillImage" />
        <dc:title>kucoin-logo</dc:title>
      </cc:Work>
    </rdf:RDF>
  </metadata>
  <defs
     id="defs28" />
  <sodipodi:namedview
     pagecolor="#ffffff"
     bordercolor="#666666"
     borderopacity="1"
     objecttolerance="10"
     gridtolerance="10"
     guidetolerance="10"
     inkscape:pageopacity="0"
     inkscape:pageshadow="2"
     inkscape:window-width="1920"
     inkscape:window-height="1014"
     id="namedview26"
     showgrid="false"
     inkscape:zoom="56.59398"
     inkscape:cx="16.420998"
     inkscape:cy="14.75838"
     inkscape:window-x="1080"
     inkscape:window-y="34"
     inkscape:window-maximized="1"
     inkscape:current-layer="kucoin-logo"
     fit-margin-left="2" />
  <!-- Generator: Sketch 56.3 (81716) - https://sketch.com -->
  <title
     id="title2">kucoin-logo</title>
  <desc
     id="desc4">Created with Sketch.</desc>
  <g
     id="kucoin-logo"
     style="fill:none;fill-rule:evenodd;stroke:none;stroke-width:1"
     transform="translate(-14,-14)">
    <rect
       id="矩形"
       x="1.2939318"
       y="0.10434178"
       width="150"
       height="56" />
    <path
       d="m 23.373175,28.013999 8.281834,8.283119 5.227523,-5.227523 c 0.934751,-0.841665 2.364819,-0.804222 3.254246,0.0852 0.889426,0.889426 0.926869,2.319494 0.0852,3.254245 l -6.898532,6.899816 c -0.926633,0.911309 -2.412816,0.911309 -3.33945,0 l -9.95284,-9.955408 v 5.917248 c 0,1.305926 -1.058661,2.364587 -2.364587,2.364587 -1.305925,0 -2.364587,-1.058661 -2.364587,-2.364587 V 18.749595 c 0,-1.305925 1.058662,-2.364587 2.364587,-2.364587 1.305926,0 2.364587,1.058662 2.364587,2.364587 v 5.917248 l 9.95156,-9.952844 c 0.926351,-0.911999 2.413099,-0.911999 3.33945,0 l 6.903669,6.898532 c 0.841665,0.934751 0.804222,2.364819 -0.0852,3.254245 -0.889427,0.889427 -2.319495,0.92687 -3.254245,0.08521 l -5.227527,-5.227528 z m 8.285688,-2.367156 v 0 c -0.957542,-5.2e-4 -1.821087,0.57589 -2.187883,1.460394 -0.366795,0.884505 -0.164589,1.902871 0.512312,2.580139 0.676901,0.677269 1.695157,0.880028 2.579861,0.513713 0.884703,-0.366316 1.461582,-1.229548 1.461582,-2.18709 3.4e-4,-0.627809 -0.248729,-1.23004 -0.692416,-1.674208 -0.443687,-0.444169 -1.045647,-0.693892 -1.673456,-0.694232 z"
       id="path17"
       style="fill:#23af91;fill-rule:evenodd;stroke-width:1" />
  </g>
</svg>
